<svg xmlns="http://www.w3.org/2000/svg" xmlns:xlink="http://www.w3.org/1999/xlink" viewBox="0 0 66 66"><defs><linearGradient id="linear-gradient" x1="33" y1="65.49" x2="33" y2="0.51" gradientUnits="userSpaceOnUse"><stop offset="0" stop-color="#e6e6e6"/><stop offset="0.03" stop-color="#e9e9e9"/><stop offset="0.21" stop-color="#f6f6f6"/><stop offset="0.44" stop-color="#fdfdfd"/><stop offset="1" stop-color="#fff"/></linearGradient></defs><title>04a-button</title><g id="Layer_2" data-name="Layer 2"><g id="Keypad"><rect x="0.51" y="0.51" width="64.98" height="64.98" rx="4.49" ry="4.49" fill="url(#linear-gradient)"/><path d="M61,1a4,4,0,0,1,4,4V61a4,4,0,0,1-4,4H5a4,4,0,0,1-4-4V5A4,4,0,0,1,5,1H61m0-1H5A5,5,0,0,0,0,5V61a5,5,0,0,0,5,5H61a5,5,0,0,0,5-5V5a5,5,0,0,0-5-5Z" fill="#aaa"/><line x1="16.69" y1="18.02" x2="49.31" y2="18.02" fill="none" stroke="#000" stroke-linecap="round" stroke-miterlimit="10" stroke-width="3.25"/><path d="M26.31,18V16.86a3.46,3.46,0,0,1,3.46-3.46h6.45a3.46,3.46,0,0,1,3.46,3.46V18" fill="none" stroke="#000" stroke-miterlimit="10" stroke-width="2.5"/><polygon points="44.85 52.6 21.02 52.6 17.52 22.52 48.35 22.52 44.85 52.6" fill="none" stroke="#000" stroke-linejoin="round" stroke-width="2.5"/><line x1="25.27" y1="26.69" x2="26.94" y2="48.44" fill="none" stroke="#000" stroke-linejoin="round" stroke-width="1.5"/><line x1="41.02" y1="26.69" x2="39.35" y2="48.44" fill="none" stroke="#000" stroke-linejoin="round" stroke-width="1.5"/><line x1="33.15" y1="48.44" x2="33.15" y2="26.69" fill="none" stroke="#000" stroke-linejoin="round" stroke-width="1.5"/></g></g></svg>