<svg xmlns="http://www.w3.org/2000/svg" viewBox="0 0 66 66"><title>05b-button</title><g id="Layer_2" data-name="Layer 2"><g id="Keypad"><rect x="0.51" y="0.51" width="64.98" height="64.98" rx="4.49" ry="4.49" fill="#ebfd44"/><path d="M61,1a4,4,0,0,1,4,4V61a4,4,0,0,1-4,4H5a4,4,0,0,1-4-4V5A4,4,0,0,1,5,1H61m0-1H5A5,5,0,0,0,0,5V61a5,5,0,0,0,5,5H61a5,5,0,0,0,5-5V5a5,5,0,0,0-5-5Z" fill="#b2db5f"/><path d="M46.25,12.25l8.17,8c-8,8-21.33,23.17-25.33,33.5-5.17-7.5-11.67-13.33-17.5-16.5a72,72,0,0,0,5-7.83,38.33,38.33,0,0,1,11.67,12C31.92,32.08,40.08,18.75,46.25,12.25Z"/></g></g></svg>