<!-- Generator: Adobe Illustrator 21.1.0, SVG Export Plug-In  -->
<svg version="1.1"
	 xmlns="http://www.w3.org/2000/svg" xmlns:xlink="http://www.w3.org/1999/xlink" xmlns:a="http://ns.adobe.com/AdobeSVGViewerExtensions/3.0/"
	 x="0px" y="0px" width="231.3px" height="223.5px" viewBox="0 0 231.3 223.5" style="enable-background:new 0 0 231.3 223.5;"
	 xml:space="preserve">
<style type="text/css">
	.st0{fill:#FFF200;}
</style>
<defs>
</defs>
<g>
	<g>
		<path class="st0" d="M21.4,91.8v3.8h-0.7C20.9,94.3,21.1,93.1,21.4,91.8z"/>
		<path class="st0" d="M21.7,88.6c0.2-0.7,0.5-1,0.9-1.2c0.3-0.2,0.8-0.3,1.2-0.1c0.4,0.1,0.9,0.4,1.2,0.8c0.4,0.4,0.7,0.9,0.9,1.5
			c0.1,0.3,0.1,0.7,0.1,1c-0.1,0.4-0.1,0.7-0.3,1.1c-0.3,0.7-0.7,1.4-1.2,1.9c-0.4,0.5-0.8,0.9-1,1.2c-0.1,0.2-0.2,0.3-0.1,0.4
			c0.1,0.1,0.3,0.2,0.6,0.4l-2.6,2.6c-0.1,0.2-0.1,0.4-0.2,0.5c-0.1,0.2-0.1,0.3-0.2,0.5l-0.4,1.3l-4.9-5.8c-0.5-0.4-0.9-1-1-1.5
			c-0.1-0.5-0.1-1.1-0.1-1.8c0.1-0.6,0.2-1.3,0.5-2c0.3-0.6,0.8-1.2,1.4-1.6c0.6-0.4,1.2-0.7,1.8-0.7c0.3,0,0.6,0,0.9,0.1
			c0.3,0.1,0.6,0.3,0.8,0.4c0.5,0.3,0.8,0.8,1,1.2c0.1,0.2,0.2,0.4,0.3,0.5c0,0.1,0.1,0.1,0.1,0.2c0,0,0,0,0.1-0.2l0.1-0.3
			L21.7,88.6z M21,95l0.1-0.7c0-0.1,0-0.1,0-0.1l0,0.4c0,0.3,0.1,0.6,0.2,1c0.2,0.7,0.4,1.5,0.9,2.2c0.2,0.3,0.4,0.6,0.7,0.9
			c0.3,0.3,0.5,0.4,0.8,0.6c0.6,0.3,1.1,0.3,1.6,0.2c0.5-0.1,0.9-0.3,1.2-0.6c0.3-0.3,0.4-0.7,0.4-1c0-0.3-0.1-0.6-0.2-0.8
			c-0.1-0.2-0.6-0.5-1.2-0.6l-4.9-5.8l0.4,1.3c0.1,0.2,0.1,0.3,0.2,0.5c0.1,0.1,0.1,0.3,0.2,0.5l-2.6,2.6c0.2,0,0.5-0.1,0.6-0.1
			c0.1,0,0.1-0.1-0.1-0.1c-0.2,0-0.6,0-1,0.2c-0.5,0.2-0.9,0.5-1.2,0.9c-0.2,0.2-0.2,0.4-0.3,0.6c0,0.2,0,0.4,0.1,0.6
			c0.1,0.3,0.5,0.5,0.9,0.6c0.4,0.1,0.8,0,1.2-0.2c0.4-0.2,0.8-0.6,1.2-1.1C20.5,96.6,20.8,96,21,95z"/>
	</g>
	<g>
		<path class="st0" d="M21.4,134.7v1.3c-0.1-0.4-0.2-0.9-0.3-1.3H21.4z"/>
		<path class="st0" d="M23.7,132.4c0.7-0.5,1.1-0.6,1.6-0.8c0.4-0.1,0.8-0.1,1.1,0c0.3,0.1,0.5,0.3,0.6,0.5c0.1,0.2,0.2,0.5,0.1,0.8
			c-0.2,0.7-1.4,1.5-2.4,2c-0.5,0.3-0.9,0.4-1.1,0.6c-0.3,0.1-0.1,0.2,0.4,0.4l0.3,0.1l-5.3,0.5l-3.1,0.3c-0.5,0.1-0.7,0-0.9,0
			c-0.2,0-0.4,0-0.6-0.1c-0.4-0.1-0.4-0.2,0-0.4c0.1-0.1,0.2-0.1,0.3-0.2c0.1-0.1,0.4-0.1,0.6-0.2l1.7-0.5l4.3-5.2
			c0.3,0.2,0.5,0.5,0.8,0.8c0.2,0.3,0.4,0.5,0.5,0.8c0.1,0.3,0.2,0.5,0.3,0.7c0,0.1,0,0.3,0.1,0.3c0.1,0,0.1,0,0.3-0.1
			C23.2,132.8,23.4,132.6,23.7,132.4z M19.1,137c0.2-0.2,0.5-0.4,0.6-0.4c0.1-0.1,0.2-0.1,0.2-0.1c0,0,0,0.2,0,0.3
			c0,0.2,0.1,0.4,0.2,0.7c0.1,0.3,0.2,0.5,0.4,0.8c0.2,0.3,0.4,0.6,0.6,0.8l4.3-5.2l1.7-0.2l0.6,0c0.2,0,0.3,0,0.4,0
			c0.4,0,0.4,0.1,0.1,0.2l-0.6,0.2c-0.2,0.1-0.3,0.2-0.9,0.3l-1.6,0.5c-0.6,0.2-0.8,0.3-1.3,0.5l-5.1,0.6c0.5,0,0.7,0,0.4,0
			c-0.2,0-0.6,0.1-1.1,0.3c-1,0.3-2.2,1-2.4,1.4c-0.1,0.2,0,0.4,0.1,0.5c0.1,0.1,0.4,0.2,0.6,0.2c0.3,0,0.7-0.1,1.1-0.3
			C18,137.8,18.4,137.6,19.1,137z"/>
	</g>
	<g>
		<path class="st0" d="M21.4,90.4v5.2h-9.8v-5.2c0-0.8,0.2-1.4,0.5-1.4h8.8C21.2,88.9,21.4,89.6,21.4,90.4z"/>
		<path class="st0" d="M23.9,90.4c0.4,0.9,0.9,1.7,1.4,2.6c0.2,0.4,0.5,0.9,0.6,1.3c0.2,0.4,0.3,0.9,0.4,1.3l0.6,4.2l-5.5,0.7
			c-0.8,0.1-1.6,0.1-2.4-0.2c-0.8-0.3-1.6-0.9-2.4-1.5c-0.8-0.6-1.6-1.2-2.4-1.4c-0.4-0.1-0.8-0.2-1.2-0.1c-0.4,0.1-0.8,0.4-1.2,0.7
			l-0.9,0.5l-1.4-2.9c-0.4-0.7-0.8-1.4-1.4-2.1c-0.6-0.7-1.1-1.4-1.2-2.1l-0.1-0.5c0-0.2-0.1-0.3-0.1-0.8c0-0.4,0-0.8,0-1.3
			c0-0.3,0.1-0.5,0.1-0.9c0.1-0.3,0.2-0.7,0.5-1.3c0.1-0.3,0.3-0.6,0.7-1c0.4-0.4,0.8-1,2-1.5c0.3-0.1,0.5-0.2,0.9-0.3
			c0.4-0.1,0.7-0.2,1.1-0.2l0.3,0l0.2,0l0,0l0,0l0.1,0l0.5-0.1c0.4,0,0.7-0.1,1.1-0.1c1.4,0,2.9,0.3,4.3,1.3
			c0.7,0.5,1.4,1.1,2.1,1.7c0.2,0.1,0.4,0.2,0.5,0.4c0.6,0,1.3,0.3,1.5,0.6c0.1,0.1,0.2,0.1,0.2,0.2l0.1,0.2
			c0.1,0.1,0.2,0.2,0.2,0.3c0.2,0.4,0.2,0.6,0.3,0.8c0,0.4,0,0.7,0,1c0,0.1-0.1,0.3,0.2,0.4C23.6,90.1,23.9,90.2,23.9,90.4z
			 M18.9,90.4c0,0,0.3-0.1,0.5-0.1c0.3-0.1,0.2-0.1,0.2-0.1c-0.1-0.1-0.2-0.1-0.3,0c0,0-0.1,0.1,0,0.3c0,0,0,0.1,0.1,0.2l0.1,0.1
			c0,0.1,0.1,0.1,0.2,0.2c0.2,0.2,0.8,0.5,1.3,0.5c-0.2,0.1-0.4,0.2-0.5,0.4c-0.7,0.6-1.4,1.1-2.1,1.7c-1.4,1-2.9,1.3-4.3,1.3
			c-0.4,0-0.7,0-1.1-0.1l-0.5-0.1l-0.1,0l0,0l0,0c0,0,0.1,0,0.2,0l0.3,0c0.4,0,0.7-0.1,1-0.2c0.3-0.1,0.5-0.2,0.8-0.3
			c1-0.5,1.4-1,1.8-1.4c0.3-0.3,0.4-0.6,0.5-0.8c0.2-0.4,0.2-0.6,0.3-0.8c0-0.2,0-0.3,0-0.3c0-0.2-0.1-0.2-0.1-0.3
			c0-0.1-0.1,0.1-0.1,0.3l-0.1,0.5c-0.2,0.7-0.7,1.4-1.2,2.1c-0.6,0.7-1,1.4-1.4,2.1l-2.3-2.3c0.4,0.2,0.8,0.5,1.2,0.7
			c0.4,0.1,0.8,0.1,1.2-0.1c0.8-0.2,1.6-0.8,2.4-1.4c0.8-0.6,1.6-1.2,2.4-1.5c0.8-0.3,1.6-0.3,2.4-0.2l-4.9,4.9
			c0.1-0.4,0.2-0.9,0.4-1.3c0.2-0.4,0.4-0.9,0.6-1.3C17.9,92.1,18.4,91.2,18.9,90.4z"/>
	</g>
	<g>
		<path class="st0" d="M21.4,134.7v5.2c0,0.2,0,0.5-0.1,0.7c-0.1,0.5-0.2,0.8-0.4,0.8h-8.8c-0.3,0-0.5-0.6-0.5-1.4v-5.2H21.4z"/>
		<path class="st0" d="M23.2,132.9c0.9,0.5,1.8,1.6,2.3,3c0.3,0.7,0.5,1.5,0.6,2.3c0.1,0.4,0.1,0.8,0.2,1.2c0,0.2,0,0.3,0,0.6
			c0,0.3,0,0.6,0,0.8c0,0.3-0.1,0.6-0.1,0.8c-0.1,0.3-0.2,0.7-0.3,1.1c-0.1,0.2-0.2,0.5-0.4,0.9c-0.2,0.4-0.5,0.8-1.2,1.4
			c-0.2,0.2-0.4,0.3-0.7,0.5c-0.3,0.2-0.6,0.3-0.9,0.4c-0.4,0.1-0.8,0.2-1.2,0.2l-0.3,0l-0.1,0l0,0l0,0c-0.1,0-0.1,0-0.2,0
			c-0.5-0.1-0.9-0.3-1.4-0.6c-0.9-0.5-1.9-1.4-2.8-1.9c-0.5-0.3-0.9-0.5-1.4-0.6c-0.5-0.2-0.9-0.2-1.4,0c-0.5,0.2-0.9,0.6-1.4,0.8
			l-0.2,0.1l0,0c0,0-0.2,0-0.3,0c-0.2,0-0.5-0.1-0.7-0.1c-0.2-0.1-0.4-0.1-0.5-0.2c-0.1-0.1-0.3-0.2-0.4-0.2
			c-0.2-0.2-0.4-0.3-0.5-0.4c-0.1-0.1-0.2-0.3-0.3-0.3c-0.2-0.2-0.3-0.4-0.4-0.5c-0.4-0.6-0.6-1-0.8-1.4c-0.1-0.2-0.2-0.4-0.3-0.6
			c-0.1-0.2-0.2-0.3-0.3-0.4c-0.2-0.2-0.3-0.5-0.5-0.7c-0.3-0.5-0.5-0.9-0.6-1.4c-0.2-0.9-0.5-1.9-0.7-2.8l-0.8-5l6.5-0.8
			c1.2-0.1,2.3-0.1,3.5,0.1c1.2,0.2,2.3,0.5,3.2,1.1c0.9,0.6,1.7,1.3,2.3,2c0.3,0.3,0.6,0.6,0.9,0.8c0.2,0.1,0.3,0.2,0.5,0.3
			C22.2,133.4,22.3,133.5,23.2,132.9z M19.6,136.5c0.5-0.6,0.2-0.5-0.1-0.4c-0.2,0.1-0.5,0.2-0.8,0.3c-0.5,0.2-1,0.5-1.5,0.8
			c-1,0.6-1.9,1.4-2.6,2c-0.7,0.6-1.2,0.9-1.7,1.1c-0.5,0.2-0.9,0.2-1.4,0.1l5.7-5.7c-0.1,0.9-0.4,1.9-0.7,2.8
			c-0.1,0.5-0.3,0.9-0.6,1.4c-0.1,0.2-0.3,0.5-0.5,0.7c-0.1,0.1-0.2,0.3-0.3,0.3l-0.3,0.1c-0.2,0-0.3,0.1-0.5-0.1
			c-0.1,0-0.1-0.1-0.2-0.2c0,0-0.1-0.1-0.2-0.2c-0.1-0.1-0.2-0.2-0.4-0.3c-0.1-0.1-0.2-0.1-0.3-0.2c-0.1-0.1-0.3-0.2-0.5-0.2
			c-0.1,0-0.4-0.1-0.6-0.1c-0.1,0-0.3,0-0.3,0l0,0l0.2,0.1c0.5,0.2,0.9,0.6,1.4,0.8c0.5,0.2,0.9,0.2,1.4,0c0.5-0.2,0.9-0.4,1.4-0.6
			c0.9-0.6,1.9-1.4,2.8-1.9c0.5-0.3,0.9-0.5,1.4-0.6c0.1,0,0.1,0,0.2,0l0,0l0,0l-0.1,0l-0.3,0c-0.4,0-0.8,0.1-1.1,0.2
			c-0.4,0.1-0.6,0.2-0.9,0.4c-0.2,0.1-0.4,0.3-0.6,0.4c-0.6,0.5-0.8,0.9-1,1.2c-0.2,0.3-0.2,0.4-0.3,0.6c-0.1,0.3-0.1,0.4-0.2,0.5
			c0-0.1,0,0,0,0.1c0,0,0,0.1,0,0.1c0,0.1,0-0.1,0-0.1c0-0.1,0.1-0.1,0.2-0.2c0.1-0.1,0.4-0.3,0.6-0.5
			C17.8,138.6,18.7,137.9,19.6,136.5z"/>
	</g>
	<g>
		<path class="st0" d="M21.4,90.4v5.2H18c0.3-2.2,0.7-4.4,1.2-6.6h1.7C21.2,88.9,21.4,89.6,21.4,90.4z"/>
		<path class="st0" d="M22.3,90.4c0.2,0.9,0.7,1.7,0.8,2.6c0.1,0.4,0.1,0.9,0.1,1.3c0,0.4-0.2,0.9-0.3,1.3l-0.7,1.7L21.4,97
			c-0.6-0.2-1.1-0.6-1.7-0.7c-0.3-0.1-0.6-0.1-0.8-0.1c-0.3,0-0.6,0.1-0.8,0.2l-0.6,0.3l-0.2-1.2c-0.1-0.6-0.2-1.2-0.4-1.8
			c-0.2-0.6-0.1-1.2-0.1-1.8c0-1.2,0.1-2.3,0.6-3.4l0.8-1.8l1.1,0.3c0.6,0.1,1.1,0.4,1.7,0.7c0,0,0,0,0.1,0c0.1,0,0.3,0,0.4,0.1
			c0.2,0.1,0.4,0.2,0.5,0.3c0.2,0.2,0.2,0.4,0.3,0.5c0.1,0.3,0.1,0.5,0.1,0.7c0,0.2,0,0.4-0.1,0.5c0,0.1-0.1,0.2,0,0.2
			C22.1,90.2,22.3,90.3,22.3,90.4z M20.5,90.4c0-0.1,0.2-0.1,0.3-0.2c0-0.1,0-0.1,0-0.2c-0.1-0.1-0.1-0.2-0.2-0.3
			c-0.1-0.1-0.2-0.1-0.2-0.1c0,0,0,0.1,0,0.2c0.1,0.1,0.1,0.2,0.3,0.2c0.1,0,0.2,0.1,0.3,0.1c0.1,0,0,0,0,0
			c-0.6,0.3-1.1,0.6-1.7,0.7l1.9-1.5c0.1,1.1-0.2,2.2-0.6,3.3c-0.2,0.5-0.3,1.1-0.7,1.6c-0.4,0.5-0.7,1-1,1.5L18,94.8
			c0.3,0.1,0.6,0.2,0.8,0.2c0.3,0,0.6-0.1,0.8-0.1c0.6-0.2,1.1-0.5,1.7-0.7L20,95.6c-0.2-0.4-0.3-0.9-0.3-1.3c0-0.4,0-0.9,0.1-1.3
			C19.8,92.1,20.2,91.2,20.5,90.4z"/>
	</g>
	<g>
		<path class="st0" d="M21.4,134.7v5.2c0,0.2,0,0.5-0.1,0.7c-0.6-1.9-1.1-3.9-1.6-5.8H21.4z"/>
		<path class="st0" d="M22,134c0.4,0.2,0.6,0.7,0.8,1.2c0.2,0.5,0.3,1.1,0.3,1.8c0,0.6-0.3,1.3-0.6,1.9c-0.2,0.3-0.3,0.6-0.4,0.8
			c-0.1,0.3-0.2,0.6-0.1,0.9l0.5,2.4l-1.7-2.3c-0.2-0.2-0.4-0.4-0.5-0.6c-0.2-0.2-0.4-0.4-0.6-0.6c-0.5-0.4-0.6-0.9-0.9-1.3
			c-0.2-0.5-0.4-1-0.5-1.5c-0.1-0.5-0.1-1,0.2-1.6l0.8-2.1l0.7,0.3c0.4,0.2,0.9,0.4,1.2,0.6c0.2,0.1,0.3,0.2,0.5,0.3l0.2,0.1
			C21.7,134.2,21.8,134.2,22,134z M20.7,135.4c0.1-0.2,0.1-0.2,0-0.1l-0.2,0.1c-0.1,0.1-0.3,0.2-0.4,0.3c-0.2,0.2-0.3,0.4-0.4,0.6
			l1.5-1.8c0.5,0.4,0.8,0.8,0.9,1.3c0.2,0.5,0.3,0.9,0.3,1.5c0,0.5,0.1,1-0.1,1.6c-0.1,0.3-0.2,0.6-0.2,0.8c0,0.3-0.1,0.6-0.2,0.8
			l-1.2,0.1c0.2-0.4-0.1-0.8-0.4-1.2c-0.3-0.4-0.6-0.7-0.6-1c0-0.3,0.1-0.7,0.3-1.1C20.1,136.6,20.4,136.1,20.7,135.4z"/>
	</g>
	<g>
		<path class="st0" d="M228.7,113.9c0,57.9-46.9,104.8-104.8,104.8c-38.4,0-72-20.6-90.2-51.5c-5.3-8.2-9.5-17.2-12.3-26.8
			c0-0.2,0.1-0.4,0.1-0.7v-5.2H4.4c-0.6,0-1.1-0.5-1.1-1.1v-37c0-0.6,0.5-1.1,1.1-1.1h16.9v-5.2c0-0.8-0.2-1.4-0.5-1.4h-1.7
			C29.1,41.4,71.3,5.7,121.8,5.7c38.4,0,72,20.7,90.3,51.5C222.6,73.6,228.7,93,228.7,113.9z"/>
		<path class="st0" d="M231.2,113.9c0.3,12.9-1.8,26-6.1,38.3c-4.3,12.3-10.9,23.9-19.4,33.9c-4.2,5-9,9.7-14.1,13.8
			c-5.1,4.2-10.6,7.8-16.4,11c-5.8,3.2-11.9,5.7-18.2,7.7c-6.3,2-12.8,3.4-19.4,4.1l-2.5,0.3l-2.5,0.2c-1.6,0.1-3.3,0.3-4.9,0.2
			c-1.6,0-3.3,0.1-4.9,0l-4.9-0.3c-1.6,0-3.3-0.3-4.9-0.5l-2.4-0.3c-0.8-0.1-1.6-0.2-2.4-0.4l-4.8-0.9l-1.2-0.2l-1.2-0.3l-2.4-0.6
			c-1.6-0.4-3.2-0.8-4.7-1.4l-4.6-1.6c-1.5-0.5-3-1.2-4.5-1.8c-1.5-0.6-3-1.2-4.5-2l-4.4-2.2l-4.2-2.4c-0.7-0.4-1.4-0.8-2.1-1.2
			l-2-1.4c-1.3-0.9-2.7-1.8-4-2.7c-5.2-3.8-10.1-8.1-14.6-12.8c-1.1-1.2-2.2-2.4-3.3-3.6l-1.6-1.8l-1.5-1.9c-1-1.3-2-2.5-3-3.8
			l-2.8-3.9c-1-1.3-1.8-2.7-2.6-4l-2.5-4.1c-1.7-2.7-3.2-5.6-4.6-8.4c-1.4-2.9-2.7-5.8-4-8.8c-1.2-3-2.3-6-3.3-9l0-0.8
			c0-0.1,0-0.2,0-0.4l0-0.7l0-1.5l-0.1-2.9l1.8,1.8l-9.3,0.3l-4.6,0.1L5.1,137l-0.6,0l-0.2,0c-0.1,0-0.3,0-0.4,0
			c-0.3,0-0.6-0.1-0.9-0.3c-1.1-0.5-1.9-1.6-2-2.9l-0.5-18.7L0,96.4c0.1-1.6,1.1-3.2,2.6-3.8c0.4-0.2,0.8-0.3,1.2-0.4
			c0.2,0,0.4-0.1,0.6-0.1l0.2,0l0.6,0L7.5,92l4.6-0.2l9.3-0.3l-4,4l-0.1-4.2l0-0.9c0,0,0,0,0,0.1c0,0.1,0,0.1,0.2,0.5
			c0.1,0.2,0.2,0.5,0.9,1.2c0.1,0.1,0.2,0.2,0.3,0.3c0.1,0.1,0.2,0.1,0.4,0.3c0.4,0.2,0.7,0.3,1.3,0.4c0.1,0,0.3,0,0.4,0l0.2,0
			c0.1,0,0,0,0,0l0,0l-0.1,0l-0.5,0l-1.1,0l-5.1,0.2l1-5.3c1.2-6.7,3-13.2,5.6-19.5c2.5-6.3,5.6-12.4,9.3-18.1
			c7.3-11.5,16.8-21.6,27.8-29.6C79.6,4.5,108.2-2.7,135.3,1c6.8,1,13.5,2.3,20,4.6l2.4,0.8c0.8,0.3,1.6,0.6,2.4,0.9
			c1.6,0.6,3.2,1.2,4.7,1.9c3.1,1.5,6.2,2.9,9.1,4.6c3,1.6,5.8,3.6,8.6,5.4c1.4,1,2.7,2,4.1,3.1c0.7,0.5,1.4,1,2,1.6l1.9,1.7
			c5.2,4.4,9.8,9.3,14,14.6c1,1.3,2.1,2.6,3.1,4l2.8,4.2c1,1.4,1.8,2.8,2.6,4.3c0.8,1.4,1.7,2.9,2.5,4.3c1.7,2.8,3.2,5.9,4.6,8.9
			c1.4,3,2.7,6.1,3.8,9.3c0.6,1.6,1.1,3.2,1.6,4.7c0.4,1.6,1,3.2,1.3,4.8c0.9,3.2,1.5,6.5,2.1,9.7c0.5,3.3,0.9,6.6,1.1,9.8
			C230.3,107.3,231.2,110.6,231.2,113.9z M226.2,113.9c0-3.2,0.7-6.4,0.3-9.6c-0.3-3.2-0.9-6.3-1.5-9.4c-1.3-6.2-3.2-12.3-5.7-18.1
			c-2.5-5.8-5.5-11.4-9.1-16.6c-3.6-5.3-7.2-10.5-11.5-15c-16.9-18.5-40.3-30.2-64.7-33.1c-12.2-1.3-24.7-0.6-36.6,2.4
			c-11.9,3-23.2,8.1-33.3,15.2C54,36.8,45.1,45.7,38.3,56c-3.4,5.1-6.4,10.6-8.9,16.2c-2.5,5.7-4.5,11.6-6,17.6l-4.2-5.1l1.1,0
			l0.5,0l0.1,0l0,0l0.3,0c0.1,0,0.3,0,0.4,0c0.6,0.1,1,0.3,1.4,0.5c0.2,0.1,0.3,0.2,0.5,0.3c0.1,0.1,0.3,0.2,0.4,0.3
			c0.8,0.8,0.9,1.2,1.1,1.6c0.3,0.7,0.4,1.1,0.5,1.6c0.1,0.4,0.1,0.8,0.1,1.1l0,1.2l-0.1,4.2l-0.1,4.1l-3.9-0.1l-9.3-0.3l-4.6-0.2
			L5.1,99l-0.6,0l-0.1,0c0,0-0.1,0,0,0c0.1,0,0.2,0,0.3,0c0.2,0,0.4-0.1,0.6-0.2c0.8-0.3,1.3-1.1,1.3-2l-0.6,18.4l-0.5,18.4
			c0-0.4-0.3-0.9-0.8-1c-0.1,0-0.2-0.1-0.3-0.1c-0.1,0-0.1,0-0.2,0c-0.1,0,0.1,0,0.1,0l0.6,0l2.3,0.1l4.6,0.1l9.3,0.3l1.9,0.1l0,1.8
			l-0.1,2.9l0,1.5l0,0.7c0,0.3-0.1,0.7-0.1,1.1l0-0.8c1.7,6,4,11.8,6.8,17.3c1.4,2.8,3,5.4,4.7,8l2.6,3.9c0.9,1.3,1.7,2.6,2.7,3.8
			l2.8,3.7c1,1.2,2,2.3,3,3.5l1.5,1.7l1.6,1.6c1.1,1.1,2.2,2.2,3.3,3.3c2.3,2,4.6,4.1,7.1,5.9c2.4,1.9,5,3.6,7.5,5.3
			c10.4,6.5,21.9,11.2,33.8,13.6c11.9,2.5,24.1,2.8,36,1.3c6-0.8,11.8-2.1,17.6-3.9c5.7-1.8,11.3-4.2,16.6-6.9
			c5.3-2.8,10.4-6.1,15.2-9.7c4.8-3.7,9.3-7.8,13.4-12.2c8.2-8.9,14.9-19.2,19.5-30.6C223.3,138.4,225.8,126.2,226.2,113.9z"/>
	</g>
	<g>
		<line class="st0" x1="128.6" y1="186.3" x2="128.6" y2="185.1"/>
		<path class="st0" d="M126.5,186.3c-0.6,0-0.9,0-1.2-0.1c-0.3,0-0.5,0-0.6-0.1c-0.1,0-0.2,0-0.2-0.1c0,0,0.1,0,0.4-0.1l2.1-0.1
			c0.2,0,0.4,0,0.1-0.1l-0.9-0.1l-1.2-0.1c-0.4,0-0.5,0-0.6-0.1c-0.3,0-0.6-0.1-0.5-0.1c0.1,0,0.4-0.1,1.3-0.1l1.3-0.1l0.5,0l0.2,0
			c0.1,0,0,0-0.6,0h4.1c-0.6,0-0.7,0-0.6,0l0.2,0l0.5,0l1.3,0.1c0.9,0,1.2,0.1,1.3,0.1c0.1,0-0.2,0.1-0.5,0.1c-0.2,0-0.2,0-0.6,0.1
			l-1.2,0.1l-0.9,0.1c-0.3,0-0.1,0,0.1,0.1l2.1,0.1c0.3,0,0.4,0,0.4,0.1c0,0,0,0-0.2,0.1c-0.1,0-0.3,0-0.6,0.1c-0.3,0-0.6,0-1.2,0.1
			H126.5z"/>
	</g>
	<g>
		<line class="st0" x1="128.6" y1="37.6" x2="128.6" y2="37.3"/>
		<path class="st0" d="M126.5,37.6l-1.2,0l-0.6,0c-0.1,0-0.2,0-0.2,0c0,0,0.1,0,0.4,0l2.1,0c0.2,0,0.4,0,0.1,0l-0.9,0l-1.2,0l-0.6,0
			c-0.3,0-0.6,0-0.5,0c0.1,0,0.4,0,1.3,0l1.3,0l0.5,0l0.2,0c0.1,0,0,0-0.6,0h4.1c-0.6,0-0.7,0-0.6,0l0.2,0l0.5,0l1.3,0
			c0.9,0,1.2,0,1.3,0c0.1,0-0.2,0-0.5,0l-0.6,0l-1.2,0l-0.9,0c-0.3,0-0.1,0,0.1,0l2.1,0c0.3,0,0.4,0,0.4,0c0,0,0,0-0.2,0l-0.6,0
			l-1.2,0H126.5z"/>
	</g>
</g>
</svg>
