<!-- Generator: Adobe Illustrator 21.1.0, SVG Export Plug-In  -->
<svg version="1.1"
	 xmlns="http://www.w3.org/2000/svg" xmlns:xlink="http://www.w3.org/1999/xlink" xmlns:a="http://ns.adobe.com/AdobeSVGViewerExtensions/3.0/"
	 x="0px" y="0px" width="234.4px" height="222.8px" viewBox="0 0 234.4 222.8" style="enable-background:new 0 0 234.4 222.8;"
	 xml:space="preserve">
<style type="text/css">
	.st0{fill:#FFFFFF;}
</style>
<defs>
</defs>
<g>
	<g>
		<circle class="st0" cx="126.3" cy="112.2" r="104.8"/>
		<path d="M234.4,112.2c0.4,14.1-1.9,28.5-7,41.9c-5,13.4-12.8,25.9-22.8,36.4c-5,5.2-10.6,10-16.6,14c-1.5,1-3,2-4.6,3
			c-1.6,0.9-3.1,1.9-4.7,2.7c-1.6,0.8-3.2,1.7-4.9,2.5c-1.7,0.7-3.3,1.5-5,2.2c-6.7,2.8-13.7,4.9-20.9,6.2
			c-7.1,1.3-14.4,1.8-21.7,1.7c-7.2-0.2-14.4-1.2-21.4-2.9c-7-1.7-13.8-4.1-20.2-7.1c-6.5-3-12.6-6.6-18.3-10.8
			c-5.7-4.1-11-8.8-15.9-13.9c-4.9-5.1-9.2-10.6-13-16.5c-3.8-5.9-7.2-12-10.1-18.4c-2.9-6.4-5.2-13.1-6.8-20
			c-1.6-6.9-2.5-13.9-2.8-21c-0.3-7.1,0.1-14.3,1.2-21.4c1.1-7.1,2.9-14.1,5.4-20.9c5-13.6,13.1-26,23.2-36.5
			c5.1-5.2,10.7-10,16.7-14.1c6-4.1,12.5-7.7,19.2-10.6C96.9,2.9,111.6,0,126.3,0C141,0.1,155.6,3.1,169,9
			c13.4,5.8,25.5,14.6,35.2,25.2c9.7,10.7,17.3,23.2,22.1,36.5c2.5,6.7,4.2,13.5,5.4,20.5c0.2,1.7,0.5,3.5,0.7,5.2
			c0.2,1.8,0.4,3.5,0.5,5.2c0,0.9,0.1,1.8,0.2,2.6c0.1,0.9,0.3,1.7,0.5,2.6C233.9,108.6,234.3,110.4,234.4,112.2z M227.9,112.2
			c0-1.7,0.3-3.3,0.5-5c0.2-1.7,0.1-3.4-0.1-5c-0.2-1.7-0.5-3.3-0.8-5c-0.3-1.6-0.7-3.3-1-4.9c-1.5-6.5-3.8-12.8-6.6-18.9
			c-5.7-12-13.7-22.7-23.4-31.5c-9.6-8.8-20.8-15.6-32.8-20.3c-6-2.3-12.2-4.1-18.4-5.2c-6.3-1.1-12.7-1.7-19.1-1.7
			c-12.8,0.1-25.5,2.5-37.4,7.3c-11.9,4.7-22.8,11.8-32.1,20.8c-9.3,8.9-16.7,19.7-22.2,31.5c-2.7,5.9-4.9,12.1-6.5,18.4
			c-1.6,6.4-2.5,12.9-2.8,19.5c-0.3,6.6,0.2,13.3,1.2,19.9c1.1,6.6,2.7,13.1,5.1,19.4c2.4,6.3,5.5,12.3,9.3,17.9
			c3.8,5.6,8.2,10.6,13.1,15.3c4.9,4.6,10.2,8.7,15.9,12.2c5.7,3.5,11.7,6.4,17.9,8.6c12.4,4.5,25.6,6.4,38.6,6
			c13-0.4,25.8-3.2,37.7-8.1c1.5-0.6,2.9-1.3,4.4-2c1.5-0.7,2.9-1.5,4.3-2.2c1.4-0.7,2.8-1.6,4.2-2.3c1.4-0.8,2.7-1.7,4.1-2.5
			c5.4-3.6,10.5-7.5,15.2-12c9.4-8.9,17.2-19.7,22.7-31.6C224.4,138.6,227.5,125.5,227.9,112.2z"/>
	</g>
	<g>
		<path class="st0" d="M23.8,88.6v49.5c0,0.8-0.2,1.4-0.5,1.4h-8.8c-0.3,0-0.5-0.6-0.5-1.4V88.6c0-0.8,0.2-1.4,0.5-1.4h8.8
			C23.6,87.2,23.8,87.8,23.8,88.6z"/>
		<path d="M26.3,88.6c0.6,5.1,1.5,10.3,2.1,15.4c0.2,2.6,0.4,5.1,0.4,7.7c0,2.6-0.1,5.1-0.5,7.7c-0.6,5.1-2,10.3-2.6,15.4
			c-0.1,0.6-0.1,1.3-0.2,1.9l-0.1,1l0,0.5c0,0.2,0,0.4-0.1,0.7c0,0.2-0.1,0.5-0.2,0.7c0,0.1-0.1,0.3-0.2,0.5
			c-0.1,0.2-0.2,0.4-0.5,0.7c-0.1,0.1-0.4,0.3-0.7,0.4c-0.2,0.1-0.4,0.1-0.5,0.1l-0.1,0l-0.2,0l-0.5,0c-0.6,0-1.3,0.1-1.9,0.2
			c-1.3,0.2-2.6,0.4-3.8,0.6c-0.6,0.1-1.3,0.2-1.9,0.3l-0.2,0l-0.1,0c0,0,0,0-0.2,0c-0.2,0-0.3,0-0.5-0.1c-0.3-0.1-0.5-0.2-0.8-0.3
			c-0.2-0.1-0.3-0.2-0.5-0.4c-0.5-0.5-0.6-0.7-0.8-1c-0.1-0.2-0.2-0.4-0.3-0.6c-0.3-0.7-0.3-1.2-0.4-1.8c-0.4-2.6-1-5.1-1.4-7.7
			c-0.4-2.6-0.6-5.1-0.8-7.7c-0.4-5.1-0.7-10.3-0.6-15.4c0.1-2.6,0.2-5.1,0.4-7.7c0.2-2.6,0.6-5.1,1.1-7.7l0.4-1.9l0.2-1l0.1-0.5
			c0-0.3,0.1-0.6,0.2-0.9c0.1-0.3,0.2-0.6,0.3-1c0.1-0.2,0.2-0.4,0.3-0.7c0.2-0.3,0.3-0.6,0.9-1.1c0.1-0.1,0.4-0.3,0.5-0.4
			c0.2-0.1,0.6-0.3,0.8-0.4c0.2-0.1,0.4-0.1,0.6-0.1c0.2,0,0.5,0,0.5,0l0.1,0l0.2,0l0.5,0.1l1.9,0.4c1.3,0.2,2.6,0.5,3.8,0.6
			c0.6,0.1,1.3,0.2,1.9,0.3l0.2,0l0.1,0l0.2,0c0.1,0,0.2,0,0.3,0.1c0.2,0.1,0.4,0.1,0.5,0.2c0.1,0.1,0.2,0.2,0.3,0.2
			c0.6,0.6,0.7,0.9,0.9,1.2C26,87.6,26.3,88.1,26.3,88.6z M21.3,88.6c0-0.1,0.3-0.3,0.5-0.4c0.1,0,0.1-0.1,0.5,0.3
			c0.1,0.1,0.2,0.1,0.2,0.2c0.1,0.1,0.3,0.1,0.4,0.2c0.1,0,0.2,0,0.3,0c0.1,0,0.1,0,0.1,0l-0.1,0L23,89c-0.6,0.1-1.3,0.2-1.9,0.3
			c-1.3,0.2-2.6,0.4-3.8,0.6l-1.9,0.4l-0.5,0.1l-0.2,0l-0.1,0c0,0,0.3,0,0.4,0c0.2,0,0.4-0.1,0.5-0.1c0.3-0.1,0.6-0.2,0.7-0.3
			c0.2-0.1,0.4-0.3,0.4-0.3c0.4-0.4,0.5-0.6,0.6-0.7l0.1-0.2c0.1-0.1,0.1-0.1,0.1-0.1c0,0,0.1,0,0.1,0.1l0.1,0.5l0.2,1l0.4,1.9
			c0.5,2.6,0.9,5.1,1.1,7.7c0.2,2.6,0.3,5.1,0.4,7.7c0.1,5.1-0.2,10.3-0.6,15.4c-0.2,2.6-0.3,5.1-0.8,7.7c-0.4,2.6-1,5.1-1.4,7.7
			c-0.1,0.1-0.1,0.2-0.2,0.1c0,0,0-0.1-0.1-0.2c-0.1-0.1-0.1-0.3-0.5-0.6c-0.1-0.1-0.3-0.2-0.4-0.3c-0.2-0.1-0.4-0.2-0.7-0.3
			c-0.1,0-0.3-0.1-0.4-0.1c-0.2,0-0.2,0-0.2,0l0.1,0l0.2,0c0.6,0.1,1.3,0.2,1.9,0.3c1.3,0.2,2.6,0.4,3.8,0.6
			c0.6,0.1,1.3,0.1,1.9,0.2l0.5,0l0.2,0l0.1,0c-0.1,0-0.3,0-0.4,0.1c-0.3,0.1-0.4,0.2-0.5,0.3c-0.2,0.2-0.2,0.2-0.2,0.3c0,0,0,0,0,0
			c0,0,0-0.1,0-0.2c0-0.1,0-0.2,0-0.3l0-0.5l-0.1-1c0-0.6-0.1-1.3-0.2-1.9c-0.5-5.1-1.9-10.3-2.6-15.4c-0.3-2.6-0.5-5.1-0.5-7.7
			c0-2.6,0.1-5.1,0.4-7.7C19.7,98.9,20.7,93.8,21.3,88.6z"/>
	</g>
	<g>
		<circle class="st0" cx="124.2" cy="108.8" r="104.8"/>
		<path d="M230,108.8c0.1,13.8-2.5,27.7-7.7,40.6c-5.2,12.9-13,24.8-22.8,34.7c-9.8,9.9-21.6,17.9-34.5,23.2
			c-12.9,5.4-26.9,8-40.8,7.9c-13.9-0.1-27.8-3-40.6-8.5c-6.4-2.7-12.5-6.1-18.2-10c-5.7-3.9-11.1-8.3-15.9-13.3
			c-9.7-9.9-17.4-21.6-22.8-34.3c-5.4-12.7-8.3-26.5-8.4-40.4c-0.2-13.9,2.3-27.8,7.6-40.7c5.2-12.9,13-24.8,22.9-34.7
			c9.8-9.9,21.6-17.9,34.5-23.3c12.9-5.4,26.9-8.2,40.9-8.2c14,0.1,28,2.8,40.9,8.3c12.9,5.4,24.6,13.4,34.4,23.4
			c9.7,10,17.4,21.8,22.6,34.7c2.6,6.4,4.5,13.1,5.8,19.9c0.3,1.7,0.6,3.4,0.8,5.1c0.2,1.7,0.4,3.4,0.6,5.1c0.1,1.7,0.3,3.4,0.5,5.2
			C229.8,105.3,229.9,107.1,230,108.8z M228.1,108.8c0-1.7,0-3.4,0-5.1c0-1.7-0.1-3.4-0.3-5.1c-0.2-1.7-0.5-3.4-0.7-5.1
			c-0.3-1.7-0.6-3.4-0.9-5c-1.4-6.7-3.4-13.2-6.1-19.4c-5.4-12.5-13.2-23.8-22.9-33.3c-9.7-9.4-21.2-17-33.7-22
			c-12.5-5.1-25.9-7.7-39.4-7.7c-13.5,0-26.9,2.7-39.3,7.8C72.4,18.9,61,26.5,51.4,36c-9.6,9.5-17.3,20.8-22.6,33.3
			c-5.3,12.4-8.2,25.9-8.3,39.5c-0.1,13.6,2.4,27.2,7.5,39.9c5.1,12.7,12.9,24.2,22.6,33.7c4.9,4.8,10.2,9.1,15.9,12.8
			c5.7,3.7,11.8,6.9,18.1,9.4c12.6,5.1,26.2,7.5,39.7,7.4c6.8,0,13.5-0.7,20.1-2.1c6.6-1.3,13.1-3.4,19.3-5.9
			c12.5-5.1,23.9-12.8,33.5-22.3c9.6-9.5,17.4-20.9,22.7-33.3C225.2,135.9,228,122.4,228.1,108.8z"/>
	</g>
	<g>
		<circle class="st0" cx="124.2" cy="109.6" r="74.1"/>
		<path d="M200.8,109.6c0.8,20-6.7,40.7-21,55.6c-3.6,3.7-7.5,7.1-11.8,10c-1.1,0.7-2.2,1.4-3.3,2.1c-1.1,0.6-2.2,1.3-3.4,1.9
			c-1.2,0.6-2.3,1.2-3.5,1.7c-1.2,0.5-2.3,1.1-3.5,1.6c-9.5,4-20,5.9-30.2,5.6c-5.1-0.2-10.2-0.9-15.2-2.1c-5-1.2-9.8-2.9-14.4-5.1
			c-4.6-2.2-8.9-4.8-13-7.7c-4.1-3-7.8-6.3-11.2-9.9c-3.4-3.6-6.5-7.6-9.2-11.7c-2.7-4.2-5.1-8.5-7.2-13c-2-4.5-3.8-9.2-4.9-14.1
			c-1.2-4.9-1.8-9.9-2-14.9c-0.2-5,0-10.1,0.8-15.2c0.7-5,2-10,3.8-14.9c3.5-9.7,9.3-18.5,16.5-26c7.2-7.5,15.9-13.5,25.5-17.6
			c9.6-4.2,20.1-6.2,30.5-6.2c10.4,0.1,20.9,2.2,30.4,6.4c9.5,4.2,18.1,10.4,25,18c6.9,7.6,12.2,16.5,15.6,26
			c1.7,4.7,2.9,9.6,3.7,14.5c0.2,1.2,0.4,2.5,0.5,3.7c0.1,1.2,0.2,2.5,0.3,3.7c0,1.2,0.2,2.5,0.5,3.7
			C200.5,107.1,200.8,108.4,200.8,109.6z M195.8,109.6c0-1.2,0.2-2.3,0.4-3.5c0.2-1.2,0.1-2.4,0-3.5c-0.2-1.2-0.4-2.3-0.6-3.5
			c-0.2-1.2-0.5-2.3-0.7-3.5c-1.1-4.6-2.7-9-4.7-13.3c-4-8.4-9.8-15.9-16.6-22c-6.8-6.1-14.7-10.9-23.1-14.1
			c-8.4-3.2-17.3-4.9-26.3-4.8c-9,0-17.9,1.8-26.2,5.1c-8.3,3.3-16,8.3-22.5,14.5C69,67.2,63.8,74.7,59.8,83
			c-1.9,4.1-3.5,8.5-4.7,12.9c-1.1,4.5-1.8,9.1-2.1,13.7c-0.2,4.7,0.1,9.4,0.8,14c0.8,4.6,1.9,9.2,3.5,13.7
			c1.7,4.4,3.8,8.7,6.5,12.6c2.7,3.9,5.8,7.5,9.2,10.8c3.4,3.2,7.2,6.1,11.2,8.5c4,2.4,8.3,4.4,12.7,6c8.8,3.1,18,4.4,27.1,4.1
			c9.1-0.3,18.1-2.3,26.5-5.7c1-0.4,2.1-0.9,3.1-1.4c1-0.5,2-1,3-1.5c1-0.5,2-1.1,3-1.6c1-0.6,1.9-1.2,2.9-1.8
			c3.8-2.5,7.4-5.3,10.7-8.4c6.6-6.3,12.1-13.8,16-22.2C193.2,128.2,195.4,119,195.8,109.6z"/>
	</g>
	<g>
		<polyline class="st0" points="131,35.5 131,83.8 110.1,95.9 110.1,124.2 131,136.2 131,184.5 		"/>
		<path d="M133.1,35.5c0.6,4,1,8,1.3,12.1c0.3,4,0.5,8,0.6,12.1c0.1,4,0.1,8,0,12.1c-0.1,4-0.4,8-0.8,12.1L134,86l-1.4,0.6l-5.6,2.4
			c-1.9,0.8-3.7,1.6-5.5,2.5c-1.8,0.9-3.7,1.7-5.5,2.6c-1.8,0.9-3.6,1.8-5.3,2.9l0.7-1.1c0,2.4,0.3,4.7,0.5,7.1
			c0.2,2.4,0.3,4.7,0.6,7.1c0.2,2.4,0.5,4.7,0.8,7.1c0.3,2.4,0.5,4.7,0.7,7.1l-1.9-3.4c3.6,1.8,7.2,3.7,10.7,5.6l5.3,2.8
			c1.8,0.9,3.5,1.9,5.3,2.9l2.4,1.3l0,2.8c0,4,0,8-0.2,12.1c0,2-0.2,4-0.3,6c-0.2,2-0.3,4-0.5,6c-0.4,4-0.9,8-1.4,12.1
			c-0.2,2-0.4,4-0.6,6l-0.2,3c-0.1,1-0.1,2,0.6,3h-4.1c0.7-1,0.7-2,0.6-3l-0.2-3c-0.2-2-0.4-4-0.6-6c-0.5-4-1-8-1.4-12.1
			c-0.2-2-0.4-4-0.5-6c-0.1-2-0.2-4-0.3-6c-0.2-4-0.2-8-0.2-12.1l2.4,4.1c-1.7-1-3.5-2.1-5.2-3.1l-5.1-3.2
			c-3.4-2.2-6.8-4.3-10.2-6.5l-2.1-1.4l0.1-2c0.1-2.4,0.4-4.7,0.7-7.1c0.3-2.4,0.5-4.7,0.8-7.1c0.3-2.4,0.4-4.7,0.6-7.1
			c0.2-2.4,0.5-4.7,0.5-7.1l0-0.8l0.7-0.4c1.8-1,3.5-2.1,5.1-3.2c1.7-1.1,3.3-2.3,5-3.4c1.6-1.2,3.3-2.4,4.9-3.6l4.9-3.6l-1.6,2.8
			c-0.4-4-0.7-8-0.8-12.1c-0.1-4-0.1-8,0-12.1c0.1-4,0.3-8,0.6-12.1c0.3-4,0.7-8,1.3-12.1H133.1z"/>
	</g>
	<g>
		<circle class="st0" cx="128.6" cy="102.1" r="6.4"/>
		<path d="M135.9,102.1c0.2,1.9-0.2,4.1-1.6,5.7c-1.4,1.6-3.6,2.6-5.7,2.3c-2.1-0.2-3.9-1.6-5-3c-0.6-0.7-1-1.5-1.5-2.3
			c-0.5-0.8-0.8-1.7-1-2.7c-0.2-1-0.2-2,0.1-3.1c0.2-1,0.8-2,1.5-2.8c1.4-1.6,3.6-2.7,5.9-2.6c2.2,0,4.4,1.1,5.6,2.9
			c0.6,0.9,1,1.8,1.2,2.8c0.1,0.5,0.2,1,0.2,1.4l0,0.7C135.5,101.6,135.9,101.8,135.9,102.1z M134.1,102.1c0-0.2,0.3-0.4,0.2-0.6
			l-0.2-0.5c-0.1-0.4-0.3-0.7-0.5-1c-0.4-0.6-1-1-1.6-1.4c-1.2-0.6-2.3-0.9-3.4-0.9c-1.1,0-2.3,0.3-3.2,1.1
			c-0.5,0.4-0.8,0.9-1.2,1.4c-0.4,0.5-0.7,1.1-0.9,1.8c-0.1,0.7-0.1,1.4,0,2.2c0.2,0.8,0.7,1.4,1.3,1.8c1.2,0.9,2.8,1,4,0.7
			c1.2-0.2,2.3-0.7,3.3-1.4C132.9,104.7,133.8,103.5,134.1,102.1z"/>
	</g>
	<g>
		<circle class="st0" cx="128.6" cy="119.3" r="6.4"/>
		<path d="M135.9,119.3c0.2,1.9-0.2,4.1-1.6,5.7c-1.4,1.6-3.6,2.6-5.7,2.3c-2.1-0.2-3.9-1.6-5-3c-0.6-0.7-1-1.5-1.5-2.3
			c-0.5-0.8-0.8-1.7-1-2.7c-0.2-1-0.2-2,0.1-3.1c0.2-1,0.8-2,1.5-2.8c1.4-1.6,3.6-2.7,5.9-2.6c2.2,0,4.4,1.1,5.6,2.9
			c0.6,0.9,1,1.8,1.2,2.8c0.1,0.5,0.2,1,0.2,1.4l0,0.7C135.5,118.8,135.9,119,135.9,119.3z M134.1,119.3c0-0.2,0.3-0.4,0.2-0.6
			l-0.2-0.5c-0.1-0.4-0.3-0.7-0.5-1c-0.4-0.6-1-1-1.6-1.4c-1.2-0.6-2.3-0.9-3.4-0.9c-1.1,0-2.3,0.3-3.2,1.1
			c-0.5,0.4-0.8,0.9-1.2,1.4c-0.4,0.5-0.7,1.1-0.9,1.8c-0.1,0.7-0.1,1.4,0,2.2c0.2,0.8,0.7,1.4,1.3,1.8c1.2,0.9,2.8,1,4,0.7
			c1.2-0.2,2.3-0.7,3.3-1.4C132.9,121.9,133.8,120.7,134.1,119.3z"/>
	</g>
	<g>
		<path class="st0" d="M27.3,94.9v37c0,0.6-0.5,1.1-1.1,1.1H6.9c-0.6,0-1.1-0.5-1.1-1.1v-37c0-0.6,0.5-1.1,1.1-1.1h19.3
			C26.8,93.8,27.3,94.3,27.3,94.9z"/>
		<path d="M29.8,94.9c0.6,5,1.5,9.9,2.1,14.9c0.2,2.5,0.4,5,0.4,7.5c0,2.5-0.1,5-0.5,7.5c-0.2,1.2-0.4,2.5-0.6,3.7l-0.9,4.7
			c-0.4,1.2-1.4,2.1-2.5,2.5c-0.3,0.1-0.6,0.2-0.9,0.2c-0.1,0-0.3,0-0.4,0l-0.2,0l-0.1,0l0,0l-0.5-0.1l-1.9-0.3
			c-1.2-0.2-2.5-0.4-3.7-0.5c-1.2-0.1-2.5-0.3-3.7-0.3c-1.2,0-2.5,0-3.7,0.2c-1.2,0.2-2.5,0.4-3.7,0.6c-0.6,0.1-1.2,0.2-1.9,0.3
			l-0.1,0l-0.1,0l-0.2,0c-0.3,0-0.5,0-0.8-0.1c-0.5-0.1-1.1-0.4-1.5-0.7c-0.9-0.7-1.5-1.8-1.5-3c-0.4-2.5-1-5-1.4-7.5
			c-0.4-2.5-0.6-5-0.8-7.5C0.3,112-0.1,107,0,102c0-1.2,0.1-2.5,0.1-3.7l0.1-1.9l0.1-0.9l0-0.5l0-0.7c0-0.5,0.1-0.9,0.3-1.4
			c0.6-1.8,2-3.3,3.7-4c0.4-0.2,0.9-0.3,1.3-0.4c0.2,0,0.5-0.1,0.7-0.1l0.3,0l0.2,0l0,0l0.5,0.1c0.6,0.1,1.2,0.2,1.9,0.3
			c1.2,0.2,2.5,0.4,3.7,0.7l7.5,1.6c1.2,0.2,2.5,0.5,3.7,0.6c0.6,0.1,1.2,0.2,1.9,0.3l0.1,0l0.1,0l0.1,0c0.2,0,0.4,0,0.6,0.1
			c0.4,0.1,0.8,0.2,1.2,0.4c0.4,0.2,0.8,0.5,1.1,0.9C29.6,93.9,29.8,94.4,29.8,94.9z M24.7,94.9c0,0.2,0.1,0.4,0.3,0.5
			c0.2,0.1,0.4,0.2,0.5,0.2c0.2,0,0.3,0,0.4,0c0.1,0,0.1,0,0.2,0l0,0l-0.1,0l-0.1,0c-0.6,0.1-1.2,0.2-1.9,0.3
			c-1.2,0.2-2.5,0.4-3.7,0.6L13,98.1c-1.2,0.2-2.5,0.5-3.7,0.7C8.6,98.9,8,98.9,7.4,99l-0.5,0.1l0,0l0.1,0l0.2,0c0.1,0,0.3,0,0.4,0
			c0.3,0,0.6-0.1,0.9-0.2c1.1-0.4,2.1-1.4,2.5-2.6c0.1-0.3,0.2-0.6,0.2-0.9l0-0.2l0-0.1l0,0l0,0.1l0,0.5l0.1,0.9l0.1,1.9
			c0.1,1.2,0.1,2.5,0.1,3.7c0.1,5-0.2,9.9-0.6,14.9c-0.2,2.5-0.3,5-0.8,7.5c-0.4,2.5-1,5-1.4,7.5c-0.1-0.5-0.4-1.1-0.8-1.3
			c-0.2-0.1-0.4-0.2-0.7-0.3c-0.1,0-0.2,0-0.4,0l-0.1,0l0.1,0l0.1,0c0.6,0.1,1.2,0.2,1.9,0.3c1.2,0.2,2.5,0.4,3.7,0.6
			c1.2,0.2,2.5,0.2,3.7,0.2c1.2-0.1,2.5-0.2,3.7-0.3c1.2-0.1,2.5-0.3,3.7-0.5l1.9-0.3l0.5-0.1l0,0l0,0l-0.1,0c-0.1,0-0.1,0-0.2,0
			c-0.1,0-0.3,0-0.4,0.1c-0.5,0.2-1,0.6-1.3,1.1c-0.1,0.1-0.1,0.3-0.1,0.4l0,0.1l0,0.1l0,0l0-0.1l-0.1-0.5l-0.2-0.9l-0.4-1.9
			c-0.2-1.2-0.4-2.5-0.6-3.7c-0.3-2.5-0.5-5-0.5-7.5c0-2.5,0.1-5,0.4-7.5C23.2,104.8,24.1,99.9,24.7,94.9z"/>
	</g>
</g>
</svg>
