<!-- Generator: Adobe Illustrator 21.1.0, SVG Export Plug-In  -->
<svg version="1.1"
	 xmlns="http://www.w3.org/2000/svg" xmlns:xlink="http://www.w3.org/1999/xlink" xmlns:a="http://ns.adobe.com/AdobeSVGViewerExtensions/3.0/"
	 x="0px" y="0px" width="252.5px" height="485.3px" viewBox="0 0 252.5 485.3" style="enable-background:new 0 0 252.5 485.3;"
	 xml:space="preserve">
<style type="text/css">
	.st0{fill:#FFF200;}
</style>
<defs>
</defs>
<g>
	<path class="st0" d="M247.9,482.6H5c-1,0-1.9-0.8-1.9-1.9V3.5c0-1,0.8-1.9,1.9-1.9h242.9c1,0,1.9,0.8,1.9,1.9v477.2
		C249.8,481.7,249,482.6,247.9,482.6z"/>
	<path class="st0" d="M247.9,484c-7.6,0-15.1-0.5-22.7-0.4l-22.7,0.2l-45.4,0.3l-90.8,0.8l-45.4,0.4l-11.3,0.1l-2.8,0l-1.4,0l-0.4,0
		c-0.1,0-0.5,0-0.8-0.1c-0.6-0.1-1.1-0.3-1.6-0.6c-1-0.6-1.8-1.5-2.1-2.7c-0.1-0.3-0.1-0.6-0.2-0.9c0-0.3,0-0.6,0-0.7l0-0.7l0-2.8
		l-0.1-22.7c-0.2-30.3-0.2-60.5-0.2-90.8l0.1-90.8L0.3,182c0.1-30.3,0.2-60.5,0.4-90.8l0.4-45.4l0.2-22.7l0.1-11.3l0-5.7l0-1.4
		l0-0.7l0-0.4c0-0.1,0-0.2,0-0.5C1.6,2.4,2,1.5,2.6,0.9C3.3,0.3,4.2,0,5,0l90.8,0.6c30.3,0.2,60.5,0.1,90.8-0.1l45.4-0.3l11.3-0.1
		l2.8,0l1.4,0l0.4,0c0.1,0,0.4,0,0.6,0c0.4,0.1,0.8,0.2,1.2,0.4c0.7,0.4,1.3,1.1,1.6,1.9c0.1,0.2,0.1,0.4,0.1,0.6c0,0.2,0,0.4,0,0.5
		l0,0.7l0,2.8l0.2,22.7l0.7,90.8c0.2,30.3,0.3,60.5,0.2,90.8c0,30.3,0,60.5-0.2,90.8l-0.5,90.8l-0.3,45.4l-0.1,22.7l-0.1,11.3l0,5.7
		l0,2.9C251.1,482.6,249.6,484,247.9,484z M247.9,481.2c0.3,0,0.5-0.2,0.5-0.5l0-2.7l0-5.7l-0.1-11.3l-0.1-22.7l-0.3-45.4l-0.5-90.8
		c-0.2-30.3-0.2-60.5-0.2-90.8c0-30.3,0.1-60.5,0.2-90.8l0.7-90.8l0.2-22.7l0-2.8l0-0.7l0-0.2l0-0.1c0-0.1-0.1-0.2-0.2-0.2
		c0,0-0.1,0-0.1-0.1c0,0,0,0-0.1,0l-0.4,0l-1.4,0l-2.8,0L231.9,3l-45.4-0.3C156.3,2.5,126,2.4,95.8,2.6L5,3.2
		c-0.1,0-0.3,0.1-0.3,0.3l0,2.7l0,5.7L5,23.2l0.2,22.7l0.4,45.4C5.8,121.5,5.9,151.8,6,182l0.3,90.8l0.1,90.8
		c-0.1,30.3-0.1,60.5-0.2,90.8L5.9,477l0,2.8l0,0.7c0,0.2,0,0.1,0,0.1c0-0.1,0-0.1,0-0.2c-0.1-0.2-0.2-0.4-0.4-0.5
		c-0.1-0.1-0.2-0.1-0.3-0.1c0,0-0.2,0-0.1,0l0.4,0l1.4,0l2.8,0l11.3,0.1l45.4,0.4l90.8,0.8l45.4,0.3l22.7,0.2
		C232.8,481.7,240.4,481.2,247.9,481.2z"/>
</g>
</svg>
