<!-- Generator: Adobe Illustrator 21.1.0, SVG Export Plug-In  -->
<svg version="1.1"
	 xmlns="http://www.w3.org/2000/svg" xmlns:xlink="http://www.w3.org/1999/xlink" xmlns:a="http://ns.adobe.com/AdobeSVGViewerExtensions/3.0/"
	 x="0px" y="0px" width="252.5px" height="485.3px" viewBox="0 0 252.5 485.3" style="enable-background:new 0 0 252.5 485.3;"
	 xml:space="preserve">
<style type="text/css">
	.st0{fill:#FFFFFF;}
</style>
<defs>
</defs>
<g>
	<path class="st0" d="M247.9,482.6H5c-1,0-1.9-0.8-1.9-1.9V3.5c0-1,0.8-1.9,1.9-1.9h242.9c1,0,1.9,0.8,1.9,1.9v477.2
		C249.8,481.7,249,482.6,247.9,482.6z"/>
	<path d="M247.9,484c-7.6,0-15.1-0.5-22.7-0.4l-22.7,0.2l-45.4,0.3l-90.8,0.8l-45.4,0.4l-11.3,0.1l-2.8,0l-1.4,0l-0.4,0
		c-0.1,0-0.5,0-0.8-0.1c-0.6-0.1-1.1-0.3-1.6-0.6c-1-0.6-1.8-1.5-2.1-2.7c-0.1-0.3-0.1-0.6-0.2-0.9c0-0.3,0-0.6,0-0.7l0-0.7l0-2.8
		l-0.1-22.7c-0.2-30.3-0.2-60.5-0.2-90.8l0.1-90.8L0.3,182c0.1-30.3,0.2-60.5,0.4-90.8l0.4-45.4l0.2-22.7l0.1-11.3l0-5.7l0-1.4
		l0-0.7l0-0.4c0-0.1,0-0.2,0-0.5C1.6,2.4,2,1.5,2.6,0.9C3.3,0.3,4.2,0,5,0l90.8,0.6c30.3,0.2,60.5,0.1,90.8-0.1l45.4-0.3l11.3-0.1
		l2.8,0l1.4,0l0.4,0c0.1,0,0.4,0,0.6,0c0.4,0.1,0.8,0.2,1.2,0.4c0.7,0.4,1.3,1.1,1.6,1.9c0.1,0.2,0.1,0.4,0.1,0.6c0,0.2,0,0.4,0,0.5
		l0,0.7l0,2.8l0.2,22.7l0.7,90.8c0.2,30.3,0.3,60.5,0.2,90.8c0,30.3,0,60.5-0.2,90.8l-0.5,90.8l-0.3,45.4l-0.1,22.7l-0.1,11.3l0,5.7
		l0,2.9C251.1,482.6,249.6,484,247.9,484z M247.9,481.2c0.3,0,0.5-0.2,0.5-0.5l0-2.7l0-5.7l-0.1-11.3l-0.1-22.7l-0.3-45.4l-0.5-90.8
		c-0.2-30.3-0.2-60.5-0.2-90.8c0-30.3,0.1-60.5,0.2-90.8l0.7-90.8l0.2-22.7l0-2.8l0-0.7V3.5l0-0.1c0-0.1-0.1-0.2-0.2-0.2
		c0,0-0.1,0-0.1-0.1c0,0,0,0-0.1,0l-0.4,0l-1.4,0l-2.8,0L231.9,3l-45.4-0.3C156.3,2.5,126,2.4,95.8,2.6L5,3.2
		c-0.1,0-0.3,0.1-0.3,0.3l0,2.7l0,5.7L5,23.2l0.2,22.7l0.4,45.4C5.8,121.5,5.9,151.8,6,182l0.3,90.8l0.1,90.8
		c-0.1,30.3-0.1,60.5-0.2,90.8L5.9,477l0,2.8l0,0.7c0,0.2,0,0.1,0,0.1c0-0.1,0-0.1,0-0.2c-0.1-0.2-0.2-0.4-0.4-0.5
		c-0.1-0.1-0.2-0.1-0.3-0.1c0,0-0.2,0-0.1,0l0.4,0l1.4,0l2.8,0l11.3,0.1l45.4,0.4l90.8,0.8l45.4,0.3l22.7,0.2
		C232.8,481.7,240.4,481.2,247.9,481.2z"/>
</g>
<g>
	<path class="st0" d="M224.7,458.4H28.3c-1,0-1.9-0.8-1.9-1.9V32.6c0-1,0.8-1.9,1.9-1.9h196.4c1,0,1.9,0.8,1.9,1.9v423.9
		C226.6,457.6,225.7,458.4,224.7,458.4z"/>
	<path d="M224.7,459.8c-6.5,0-13-0.5-19.6-0.4l-19.6,0.2l-39.1,0.3l-78.3,0.8L29,461.1l-0.6,0c-0.1,0-0.4,0-0.6,0
		c-0.2,0-0.5-0.1-0.7-0.1c-0.9-0.3-1.8-0.9-2.4-1.7c-0.6-0.8-0.9-1.8-0.9-2.7l0-1.2l0-4.9l-0.1-9.8l-0.1-19.6
		c-0.2-26.1-0.2-52.2-0.2-78.3l0.1-78.3l0.3-78.3c0.1-26.1,0.2-52.2,0.4-78.3l0.4-39.1l0.2-19.6l0.1-9.8l0-4.9l0-1.2l0-0.6
		c0-0.1,0-0.3,0-0.5c0-0.2,0.1-0.4,0.1-0.6c0.4-1.5,1.9-2.6,3.4-2.5l78.3,0.6c26.1,0.2,52.2,0.1,78.3-0.1l39.1-0.3l0.6,0
		c0.3,0,0.7,0,1,0.1c0.7,0.2,1.3,0.6,1.7,1.2c0.4,0.6,0.7,1.3,0.7,2l0,1.2l0,4.9l0.1,9.8l0.2,19.6l0.7,78.3
		c0.2,26.1,0.3,52.2,0.2,78.3c0,26.1,0,52.2-0.2,78.3l-0.5,78.3l-0.3,39.1l-0.1,19.6l-0.1,9.8l0,4.9l0,1.2l0,0.6c0,0.2,0,0.7-0.1,1
		C227.5,458.8,226.1,459.8,224.7,459.8z M224.7,457.1c0.2,0,0.4-0.2,0.5-0.4c0-0.1,0,0,0-0.2l0-0.6l0-1.2l0-4.9l-0.1-9.8l-0.1-19.6
		l-0.3-39.1l-0.5-78.3c-0.2-26.1-0.2-52.2-0.2-78.3c0-26.1,0.1-52.2,0.2-78.3l0.7-78.3l0.2-19.6l0.1-9.8l0-4.9l0-1.2
		c0-0.1,0-0.2-0.1-0.3c-0.1-0.1-0.2-0.2-0.3-0.2c-0.1,0-0.1,0-0.2,0l-0.6,0l-39.1-0.3c-26.1-0.2-52.2-0.3-78.3-0.1l-78.3,0.6
		c-0.1,0-0.2,0.1-0.2,0.2l0,0l0,0.1l0,0.6l0,1.2l0,4.9l0.1,9.8l0.2,19.6l0.4,39.1c0.2,26.1,0.3,52.2,0.4,78.3l0.3,78.3l0.1,78.3
		c-0.1,26.1-0.1,52.2-0.2,78.3l-0.1,19.6l-0.1,9.8l0,4.9l0,1.2c0-0.1-0.1-0.3-0.2-0.5c-0.1-0.1-0.2-0.2-0.4-0.3c0,0-0.1,0-0.1,0
		c0,0-0.2,0,0,0l0.6,0l39.1,0.4l78.3,0.8l39.1,0.3l19.6,0.2C211.6,457.6,218.2,457.1,224.7,457.1z"/>
</g>
<g>
	<path d="M141.5,29.6c0.7,11.6,1.1,23.2,1.4,34.7c0.2,5.8,0.2,11.6,0.4,17.4l0.2,17.4c0.1,5.8,0,11.6,0,17.4c0,5.8,0,11.6-0.1,17.4
		c-0.2,11.6-0.5,23.2-1,34.7l-0.1,1.5l-1,0.8l-11.3,8.2c-3.7,2.8-7.5,5.5-11.2,8.3c-3.7,2.8-7.5,5.6-11.1,8.4
		c-3.7,2.8-7.4,5.6-11,8.5l0.5-1c0,6.8,0.2,13.6,0.5,20.4c0.2,6.8,0.4,13.6,0.7,20.4l0.8,20.4c0.3,6.8,0.6,13.6,0.7,20.4l-1.5-3.1
		c7.4,5.6,14.7,11.3,22.1,17l11,8.5c3.7,2.9,7.4,5.7,11,8.6l1.8,1.4l0,2.3l0,17.4c0,5.8-0.1,11.6-0.1,17.4
		c-0.1,11.6-0.3,23.2-0.7,34.7l-1.4,34.7c-0.3,5.8-0.5,11.6-0.7,17.4l-0.3,8.7c-0.1,2.9-0.2,5.8,0.6,8.7h-4.1
		c0.7-2.9,0.7-5.8,0.6-8.7l-0.3-8.7c-0.2-5.8-0.4-11.6-0.7-17.4l-1.4-34.7c-0.4-11.6-0.6-23.2-0.7-34.7c0-5.8-0.1-11.6-0.1-17.4
		l0-17.4l1.8,3.7c-3.6-2.9-7.2-5.9-10.8-8.8l-10.8-8.8c-7.2-5.9-14.4-11.7-21.5-17.7l-1.5-1.3l0-1.8c0.1-6.8,0.4-13.6,0.7-20.4
		l0.8-20.4c0.3-6.8,0.4-13.6,0.7-20.4c0.2-6.8,0.5-13.6,0.5-20.4l0-0.6l0.5-0.4c3.6-2.9,7.2-5.8,10.8-8.8c3.6-2.9,7.1-5.9,10.7-9
		c3.6-3,7.1-6.1,10.6-9.1l10.6-9.1l-1.1,2.3c-0.5-11.6-0.9-23.2-1-34.7c-0.1-5.8-0.1-11.6-0.1-17.4c0-5.8,0-11.6,0-17.4l0.2-17.4
		c0.1-5.8,0.2-11.6,0.4-17.4c0.3-11.6,0.7-23.2,1.4-34.7H141.5z"/>
</g>
<g>
	<path d="M135.3,224.3c0.2,2.2,0,4.6-1.1,6.9c-0.6,1.1-1.4,2.1-2.5,2.9c-1.1,0.8-2.6,1.2-4,1.1c-1.4-0.1-2.7-0.8-3.6-1.6
		c-0.9-0.9-1.6-1.8-2.1-2.9c-0.5-1-0.8-2.1-1.3-3.1c-0.4-1-0.7-2.1-0.8-3.3c-0.1-1.1-0.2-2.3-0.1-3.5c0.1-1.2,0.6-2.4,1.2-3.5
		c0.6-1.1,1.4-2.2,2.6-3c1.1-0.8,2.6-1.4,4.1-1.4c1.5,0,3,0.6,4,1.4c1.1,0.8,1.9,1.9,2.4,3.1c0.5,1.1,0.7,2.3,0.8,3.5
		c0.1,0.6,0.1,1.1,0.1,1.7c0,0.3,0,0.6,0,0.8C134.9,223.7,135.3,224,135.3,224.3z M133.5,224.3c0-0.2,0.3-0.5,0.2-0.7
		c0-0.2-0.1-0.5-0.2-0.7c-0.1-0.5-0.3-0.9-0.5-1.4c-0.4-0.9-1-1.7-1.6-2.3c-1.2-1.3-2.6-2-3.8-1.9c-0.6,0-1.2,0.2-1.8,0.6
		c-0.6,0.3-1.2,0.9-1.7,1.6c-0.5,0.7-0.9,1.5-1.3,2.3c-0.4,0.8-0.7,1.7-0.9,2.7c-0.1,1-0.1,1.9,0,2.9c0.1,1,0.6,1.9,1.2,2.7
		c0.6,0.8,1.4,1.4,2.2,1.7c0.8,0.3,1.6,0.4,2.3,0.3c0.7-0.1,1.3-0.4,1.9-0.8c0.6-0.4,1.2-1,1.7-1.7
		C132.4,228.1,133.2,226.2,133.5,224.3z"/>
</g>
<g>
	<path d="M135.3,264.6c0.2,2.2,0,4.6-1.1,6.9c-0.6,1.1-1.4,2.1-2.5,2.9c-1.1,0.8-2.6,1.2-4,1.1c-1.4-0.1-2.7-0.8-3.6-1.6
		c-0.9-0.9-1.6-1.8-2.1-2.9c-0.5-1-0.8-2.1-1.3-3.1c-0.4-1-0.7-2.1-0.8-3.3c-0.1-1.1-0.2-2.3-0.1-3.5c0.1-1.2,0.6-2.4,1.2-3.5
		c0.6-1.1,1.4-2.2,2.6-3c1.1-0.8,2.6-1.4,4.1-1.4c1.5,0,3,0.6,4,1.4c1.1,0.8,1.9,1.9,2.4,3.1c0.5,1.1,0.7,2.3,0.8,3.5
		c0.1,0.6,0.1,1.1,0.1,1.7c0,0.3,0,0.6,0,0.8C134.9,264.1,135.3,264.3,135.3,264.6z M133.5,264.6c0-0.2,0.3-0.5,0.2-0.7
		c0-0.2-0.1-0.5-0.2-0.7c-0.1-0.5-0.3-0.9-0.5-1.4c-0.4-0.9-1-1.7-1.6-2.3c-1.2-1.3-2.6-2-3.8-1.9c-0.6,0-1.2,0.2-1.8,0.6
		c-0.6,0.3-1.2,0.9-1.7,1.6c-0.5,0.7-0.9,1.5-1.3,2.3c-0.4,0.8-0.7,1.7-0.9,2.7c-0.1,1-0.1,1.9,0,2.9c0.1,1,0.6,1.9,1.2,2.7
		c0.6,0.8,1.4,1.4,2.2,1.7c0.8,0.3,1.6,0.4,2.3,0.3c0.7-0.1,1.3-0.4,1.9-0.8c0.6-0.4,1.2-1,1.7-1.7
		C132.4,268.4,133.2,266.6,133.5,264.6z"/>
</g>
</svg>
