<!-- Generator: Adobe Illustrator 21.1.0, SVG Export Plug-In  -->
<svg version="1.1"
	 xmlns="http://www.w3.org/2000/svg" xmlns:xlink="http://www.w3.org/1999/xlink" xmlns:a="http://ns.adobe.com/AdobeSVGViewerExtensions/3.0/"
	 x="0px" y="0px" width="558.4px" height="495.5px" viewBox="0 0 558.4 495.5" style="enable-background:new 0 0 558.4 495.5;"
	 xml:space="preserve">
<style type="text/css">
	.st0{fill:#FFFFFF;}
</style>
<defs>
</defs>
<g>
	<path class="st0" d="M516.4,286.5c3.5,1.7,6.6,3.9,9.8,6c5.2,3.5,11.4,5.5,17.4,8.2c0.2-0.9,0.4-1.4,0.5-2.1c1.1,0.3,2,0.5,2.9,0.7
		c0.8,0.2,1.7,0.3,2.6,0.5c0.1-0.2,0.2-0.4,0.3-0.6c-0.9-0.5-1.7-1.1-2.7-1.4c-13.2-4.9-26-10.9-37.9-18.5
		c-4.2-2.7-8.9-3.5-13.5-4.8c-0.5-0.1-1.1,0.2-1.7,0.3c-0.1,0.3-0.2,0.6-0.3,0.9c7.7,4.2,15.4,8.5,23.1,12.7
		c0.1-0.1,0.2-0.3,0.3-0.4c-0.3-0.4-0.7-0.8-1-1.3L516.4,286.5z M554.2,235.6C554.2,235.6,554.2,235.6,554.2,235.6
		c0.4-0.6,0.8-1.1,1.1-1.5c-4.4-0.1-8.8-0.3-13.2-0.4c-0.2,0-0.4,0.1-0.5,0.1c-12.6,3.3-25.2,6.6-37.8,10c-1.7,0.5-3.2,1.5-4.8,2.3
		c0.1,0.4,0.2,0.7,0.3,1.1c2.8-1.6,5.3-1.5,7.6,0.5c0.3,0.3,1.2-0.1,1.8-0.3c13.7-4.9,27.9-7.6,42.2-9.7c2.4-0.3,4.7-0.7,7.3-1.1
		C557.4,233.7,555.7,235.3,554.2,235.6z M401.8,163.6c4.7-5.8,9.5-11.6,14.3-17.5c-0.7-0.4-1.2-0.7-2-1.2c1.3-1.3,2.4-2.5,3.7-3.9
		c4.9,3.8,9.5,7.5,14.2,11.2c0.6,0.4,1,1.1,1.4,1.7c2.2,3,4.5,5.9,6.7,8.9c0.2-0.3,0.3-0.6,0.5-1c0.8-0.2,1.7-0.8,2.5-0.7
		c1.4,0.2,2.9,0.7,4.2,1.3c6.4,3.1,12.4,2.5,18.6-0.7c7.8-3.9,12.9-8.5,10.8-19.3c8.5-2.9,12.6-9.6,14.1-18
		c1.5-8.8-2.8-15.5-8.7-21.4c0.3-0.3,0.4-0.7,0.7-0.9c5-4.2,3.9-15-1.4-18.8c-5.1-3.6-10.4-6.5-16.3-8.3c-1.4-0.4-2.8-1.3-4-2.2
		c-3.9-2.7-7.6-5.7-11.6-8c-1.9-1.1-4.8-1.5-6.9-1c-4.3,1.2-8.5,3-12.6,4.9c-2.5,1.1-4.8,2.4-7.7,1.5c-0.1,0-0.4,0.3-0.6,0.4
		c0.8,0.4,1.4,0.7,2.3,1.1c-4,3.2-7.8,6.2-11.5,9.3c-1.5,1.3-3.1,1.8-5.1,1.5c-4.3-0.4-8.3,0.8-11.7,3.4c-2.1,1.6-3.9,3.6-5.8,5.4
		c4.3-9.2,12.1-14.6,20.7-19.2c-9.8,3.8-17.7,9.6-22.8,19c-2.7,5-3.5,10.1-2.4,15.6c0.3,1.5,0.3,3.5-0.4,4.8
		c-2.4,4.7-2.4,9,0.9,13.2c0.3,0.4,0.6,1,0.7,1.5c1.6,5.2,5.7,7.1,10.5,6.9c3.7-0.1,7.3-1.3,11.2-2.1c0.7,3.9,3.6,6.9,6.9,8.7
		c-4.6,5.6-9.1,10.9-13.4,16.3c-4.4,5.5-8.6,11.1-12.9,16.8c-1.3-0.9-2.2-1.5-3.2-2.1c-2.4-1.5-3.3-3.3-1.5-6
		c4.2-6.2,8.2-12.4,12.3-18.6c0.4-0.6,1.4-1.5,1.2-1.8c-1.3-2.3,0.6-3.3,1.5-4.8c0.2-0.4-0.1-1.1-0.2-1.7c-0.5,0.3-1.2,0.4-1.5,0.8
		c-0.7,0.8-1.1,1.7-1.7,2.5c-0.2-1.8,0.7-3.8-2.3-4.6c-1.6,2.8-3.3,5.7-4.9,8.5c0.2,0.1,0.4,0.2,0.6,0.3c1.4-2,2.8-4.1,4.3-6.3
		c0.1,0.5,0.2,0.7,0.2,0.8c-2.9,8.3-6.4,16.2-11.6,23.3c-1.7,2.4-3.3,2.8-6,2.1c-9.2-2.2-18.3-5.1-28-4.1c-2.4,0.2-4.9,0.1-7.2,0.6
		c-8.7,1.6-17.8,0-26.2,3.8c-3.4,1.5-6.9,2.7-10.2,4.3c-2.6,1.2-5,2.8-7.4,4.2c-3.4-7.1-8.4-12.7-13.9-17.9
		c-6.2-5.8-13.7-8.2-22-7.7c-6.8,0.4-13.7,1.4-20.4,2.7c-16.5,3.3-29.8,11.1-36.3,27.8c-1.6,4.2-3.9,8.1-6.1,12.4
		c-3.1-1.7-6.2-3.4-9.3-5.1c-2.6-1.5-5.1-3.2-7.8-4.7c-0.9-0.5-2.2-0.4-3.2-0.7c-2.6-0.6-5.3-1.9-7.9-1.8
		c-5.6,0.2-11.1,0.9-16.6,1.9c-2.1,0.4-3.3-0.2-4.5-1.7c-5.6-6.8-11.3-13.5-16.8-20.4c-5.2-6.6-10.1-13.4-15.1-20
		c-0.3-0.4-0.9-1.2-1.1-1.2c-2.6,0.9-2.4-1.4-3.4-2.8c6-4.8,6.5-11.2,5.3-18.1c-0.5-2.8-1.3-5.7-1.1-8.5c0.4-5,1.5-9.9,2.4-14.8
		c1.2-6.2-1.2-10.5-7-12.8c-5.8-2.2-11.6-2.9-17.7-1.3c-1.1,0.3-2.7-0.3-3.7-1c-1.4-0.9-2.5-2.2-3.6-3.5c-6.7-8.4-12.9-10-22.8-5.8
		c-6.7,2.9-12.4,6.9-14.7,14.2c-0.5,1.7-0.8,3.4-1.2,5.3c-1.4,0-2.8-0.3-3.9,0.1c-2.3,0.7-5,1.2-6.5,2.7c-4.6,4.8-7.2,10.7-5.9,17.5
		c0.9,4.6,2.2,9,3.2,13c-2.8,2.6-6.4,4.8-8.5,8c-3.4,5.2-4.8,11.1-4.6,17.5c0.4,14.3,15.1,22.6,27.5,15.5c0.7-0.4,1.4-0.7,2.1-1
		c1.7,1.9,3.2,3.7,4.8,5.4c3.7,3.8,6.9,4.8,11.5,2.3c3.8-2.1,7.4-4.9,10.6-7.9c5.2-5,9-11,11.7-17.8c0.3-0.8,1.3-1.8,2-1.8
		c6.7,0.1,12.7-2.2,18.4-5.7c11.7,15.5,23.3,30.9,34.8,46.2c-3.8,2.3-7.3,4.4-11.1,6.8c-11.2-14.1-22.4-28-33.5-42
		c-1.3,2.6,1.5,4.2,2.2,6.8c-1.4,0.2-2.6,0.4-4.4,0.7c10.8,12.6,22.5,23.8,32.1,36.1c-2.4,2.6-4.4,4.7-6.8,7.3
		c-10.4-11.8-20.7-23.6-30.6-34.9c-1.6,0.3-2.8,0.5-4.6,0.8c3,3.3,5.8,6.5,8.7,9.6c-0.1,0.1-0.2,0.2-0.3,0.3
		c-1.1-0.4-2.2-0.8-3.3-1.1c11.5,7.3,17.3,19.8,26.9,28.3c-3.4,4.9-6.9,9.4-9.8,14.3c-4.7,8-6.4,17.1-4.8,26.1
		c2.5,13.3,11.4,22.8,21.2,31.2c4.3,3.7,10,6,15,8.9c1,0.6,2,1.1,3.3,1.9c-3.5,1.6-6.6,2.7-9.5,4.3c-19.6,10.9-25.5,27-21.9,49.5
		c0.1,0.7-0.6,2-1.3,2.4c-4,2.4-8.1,4.7-12.2,7c-6.3,3.6-12.7,7-18.9,10.7c-2.9,1.7-5.5,3.8-8.3,5.8c0.1,0.3,0.3,0.6,0.4,0.9
		c1.4-0.2,2.9-0.2,4.2-0.8c3.3-1.6,6.6-3.3,9.8-5.2c9.4-5.5,18.7-11.1,27.9-16.5c4.5,5.1,8.5,9.6,12.6,14.2
		c-1.7,0.3-3.1,0.5-4.9,0.7c0.8,0.9,1.1,1.3,1.6,1.8c-2.9,1.8-5.7,3.4-8.5,5.2c-2.7,1.8-5.4,3.6-8,5.6c-2.5,1.8-5.1,3.5-6.3,6.6
		c2.6-1.7,4.9-3.7,7.3-5.5c2.4-1.9,4.8-3.8,7.4-5.5c2.4-1.7,5-3.1,7.5-4.6c0.1,0.2,0.2,0.3,0.3,0.5c-5.8,4.5-11.7,9.1-17.5,13.6
		c0.1,0.2,0.3,0.5,0.4,0.7c1.7-0.6,3.5-1,5-2c6.1-3.9,12.1-7.9,18.2-11.9c1.5-1,2.8-1.3,4.5-0.1c2.9,2,6.1,3.7,9.3,5.7
		c-0.5,0.6-1,1.4-1.6,2c-8.4,8.5-16.9,17.1-25.3,25.6c-0.9,1-1.4,2.4-2.2,4c3,0.7,4.2-0.8,5.3-2.2c2-2.5,3.7-5.1,5.9-7.4
		c5.6-5.8,11.7-11.2,16.9-17.4c2.9-3.4,5.1-5.2,9.5-3.1c2.3,1.1,5.3,0.9,7.4,2.3c1.5,1,2.7,1.1,4.3,0.9c2.8-0.2,5.7-0.2,8.5-0.3
		c1.7,0,3.4,0,5.3,0c-0.1-0.6-0.2-1.1-0.2-1.1c15.9-3.7,32.2-6.3,44.8-19c0,1.2,0.2,1.9,0,2.5c-1,3.1-0.3,6.1,1.5,8.5
		c3.6,4.7,7,9.8,11.5,13.5c8.6,7.2,18.6,11.2,30.1,11.5c13.2,0.4,25.8-1.3,37.5-7.4c7.6-3.9,15.1-8.2,23-12.4
		c0.1,0.2,0.8,0.8,1.3,1.6c5.6,8.5,11.2,17.1,16.8,25.6c3.6,5.5,7,11.2,10.7,16.7c1.4,2.1,3,4.3,6,1.4c-1.3-1.8-2.7-3.8-4.2-5.6
		c-10.3-12.4-18.9-26-27.2-39.8c-0.5-0.8-0.8-2.5-0.4-3.1c2.7-3.3,5.6-6.4,8.5-9.7c14.3,17.9,26.4,37.1,43.7,52.4
		c-1.4,1-2.6,1.8-3.8,2.7c-4.6,3.9-8.6,8.3-7.4,14.9c0.4,2.3,2,4.6,3.3,6.6c1.6,2.4,1.9,4.6,1.1,7.5c-3.6,13.9-0.2,25.8,11.3,34.7
		c3.9,3.1,8.7,5.1,12.8,7.5c-0.6,0.2-1.7,0.7-2.8,1.1c0.7,0.7,1.3,0.8,1.9,0.6c3.4-0.7,6.9-1.5,10.3-2.3c7.5-1.7,14.7-4,19.1-11.3
		c0.3-0.5,1.9-0.5,2.7-0.4c4.6,1,9.3,3.2,13.7,2.8c9.4-0.8,17.3-5.5,22.5-13.7c0.7-1,0.8-2.4,1.2-3.6c-0.2-0.1-0.5-0.2-0.7-0.2
		c-0.3,0.5-0.7,1.1-1.1,1.8c0.3-3.4,1.2-6.6,0.8-9.6c-1.1-7.9-4.9-14.3-12.1-18.4c-3.2-1.8-6.2-3.7-9.5-5.4
		c-2.3-1.2-3.7-2.6-4.2-5.3c-0.4-2.1-1.9-4.3-3.3-6c-5.4-6.7-17.6-8.8-26.1-4.9c-1,0.4-2.5,0.8-3.2,0.4c-7.1-4.9-14.7-4-22.2-1.5
		c-2.6,0.9-4,0.2-5.4-1.6c-2.7-3.5-5.4-7.1-8.2-10.6c-10.2-12.9-20.3-25.8-30.6-38.7c-1.8-2.3-1.8-4.2,0.4-6.4
		c7.9,7,13.3,15.8,18.7,24.6c0.2-0.1,0.4-0.2,0.6-0.4c-1.7-3.2-3.5-6.4-5.2-9.5c1,0.4,1.5,1.1,2.1,1.7c2.7,3.1,5.2,6.3,8.1,9.2
		c0.8,0.8,2.3,1,3.5,1.5c-3.4-4.4-6.9-8.2-10.2-12.1c-1.2-1.4-1.7-3.4-2.9-4.8c-3.6-4.5-7.5-8.8-11.2-13.2c-0.5-0.6-0.9-1.6-0.7-2.2
		c0.7-2,1.7-4,2.6-6c3.5,3.7,6.7,7,9.9,10.3c6.1,6.4,13.3,11.3,21.7,13.6c9.6,2.6,19.5,4.5,29.3,6.6c0.9,0.2,1.8,0,2.7,0
		c0-0.1,0-0.3,0-0.4c-3.7-1.1-7.4-2.2-11.1-3.3c0.1-0.3,0.1-0.5,0.2-0.8c6.7,0.8,13.4,2.3,20.2,0.2c-4.2-0.2-8.3-0.4-12.5-0.6
		c0-0.2,0-0.5-0.1-0.7c3.5-1.4,7-2.7,10.9-4.3c-0.8,1.1-1.3,1.7-1.8,2.4c0.1,0.2,0.3,0.4,0.4,0.6c0.9-0.5,1.9-0.8,2.6-1.4
		c3.6-2.9,7.2-5.9,10.7-8.9c0.3-0.3,0.8-0.8,1.1-0.7c2.1,0.8,1.9-1,2.5-2c1.6-3,3.2-5.9,5.1-9.5c0.6,1.6,0.8,2.3,1.3,3.6
		c1.2-3.8,2.7-6.8,2.9-9.9c0.8-9.4,0.3-18.7-2.4-27.8c-0.4-1.4-0.4-2.5,1.4-2.9c8.6-2.2,15.5-7.4,22.4-12.6c5.4-4,9.1-8.9,10.9-15.4
		c0.9-3.6,2.2-7.1,3-10.7c1.1-4.9-0.7-9.5-2.4-14.1c-3.4-9.6-9-17.7-16.8-24.2c-8-6.6-17.8-10-27.6-12.9c-8.4-2.5-17.1-1.7-25.8-1.1
		c-0.4,0-0.9,0.4-1.9,0.9c2.8-0.2,4.9-0.4,7-0.6c0,0.2,0,0.4,0.1,0.6c-4,0.8-8.1,1.6-13,2.6c5.6-14.8,1.3-27-7.9-38.1
		c0.5-0.9,1.2-1.9,1.8-2.9C396.6,169.3,399.2,166.5,401.8,163.6z M320.2,495.3c0.3,0,0.6,0,0.8,0c5.6,0.1,10.6-0.8,12.8-7.1
		c0.2-0.6,1.7-1,2.5-1c4.1,0.1,7.4-1.4,10.3-4.2c0.9-0.9,1.9-1.7,2.9-2.6c5.8-5,7.1-10.2,4.7-17.6c-0.3-1-0.1-2.2,0.1-3.2
		c1-4.8-1.4-9.5-6.1-10.8c-2.2-0.6-4.8,0-7.1-0.1c-1.2-0.1-2.6-0.2-3.5-0.9c-3.8-3.1-7.8-3.5-12.2-1.4c-0.6,0.3-1.4,0.4-2,0.2
		c-3.8-1.3-7.4-2.8-11.2-3.9c-7.6-2.4-13.7,0.9-15.4,8.6c-1.3,6.1-1.7,12.3,0.6,18.4c0.5,1.3,0.1,2.8,0.3,4.3
		c0.3,3.1-0.4,6.7,1.1,9.1C303.7,490.7,310.1,496.4,320.2,495.3z M225.1,55.8c2-2.1,3.6-2.5,5.5,0c0.8,1,2.6,1.7,3.9,1.8
		c3.4,0.1,6.8-0.1,10.3-0.3c3.3-0.2,5.5-2.3,7.4-4.9c4.3-5.8,5.1-12.3,3-19c-0.7-2.2-0.2-3.3,1.4-4.7c4.4-3.9,5.3-7.1,3.5-11.8
		c-0.9-2.1-1.9-4.2-2.9-6.3c-1.2-2.6-3.2-4-6.2-3.6c-2.4,0.3-4.1-0.6-5.8-2.3c-7.5-7.1-19.9-5.8-25.7,2.7c-1.9,2.8-4.3,4.7-6.9,6.7
		c-4.1,3.2-8.2,6.8-8.3,12.5c-0.1,3,1.2,6.1,1.7,9.2c0.2,1.2,0.5,2.6,0.1,3.6c-1.2,3.5-1.6,7-0.4,10.4c0.7,2.1,2,4.7,3.7,5.5
		c5.3,2.6,11.1,3.2,17.6,1.6C226,56.2,225.6,56,225.1,55.8z M266.6,78.6c-0.3,0.1-0.6,0.2-0.9,0.3c-0.3-1-0.8-2.1-0.9-3.1
		c-0.1-1.2,0.3-2.4,0.3-3.6c0-0.5-0.5-1-0.8-1.5c-0.4,0.4-1.1,0.8-1.2,1.3c-0.3,2-0.5,4.1-0.6,6.1c-0.7,14.1-1.3,28.2-2.1,42.3
		c-0.2,2.8,0.4,4.6,3.5,6c0.1-1.4,0.4-2.6,0.3-3.7c-0.4-5.3-0.8-10.5,0.9-15.7c0.2,4.7,0.4,9.5,0.7,14.2c0.4,0,0.8,0.1,1.2,0.1
		c0.2-1.1,0.5-2.1,0.5-3.2c0-7.2-0.2-14.3,0-21.5c0.2-5.7,1.1-11.4,1.6-17.2c0.1-1.4,0.2-2.9-2-2.9C266.8,77.3,266.7,78,266.6,78.6z
		 M183.2,446.7c0.2,0,0.5,0,0.7,0.1c0.2-0.3,0.5-0.5,0.7-0.8c5.8-11.8,11.5-23.6,17.3-35.4c0.5-1,1-2,1.4-3c0.1-0.4-0.2-1-0.3-1.5
		c-0.5,0.1-1.2,0.1-1.4,0.4c-2.6,3.8-5.7,7.5-7.7,11.6c-4.3,8.7-7.1,18.1-13.7,25.6c-0.2,0.3-0.3,0.7-0.6,1.7
		c1.5-0.9,2.4-1.4,3.6-2.1C183.2,444.6,183.2,445.6,183.2,446.7z M36.2,275.6c8.3,2.2,16,4.4,23.7,6.2c7.7,1.8,15.6,3.2,23.8,4.9
		C79.5,282.1,42.1,271.8,36.2,275.6z M227.2,126.9c0.4-0.2,0.8-0.4,1.2-0.6c-0.4-1-0.7-2.1-1.1-3.1c-2.4-4.9-5.3-9.6-7.1-14.7
		c-2.4-6.6-4-13.5-5.8-20.3c-0.3-1.3,0-2.8,0-4.3c-1.7-0.2-2.6,0.6-2.1,2.6c0.6,2,1.5,4,2.1,6c1.3,4.1,2.5,8.1,3.7,12.2
		c-0.3,0.1-0.7,0.2-1,0.4c-2.9-6.2-5.9-12.4-8.9-18.9c-0.6,0.3-1.4,0.8-2.3,1.2c1.1,1.8,2.2,3.3,3,5c4.6,9.3,9.1,18.7,13.7,27.9
		C223.8,122.7,225.6,124.7,227.2,126.9z M492.8,236.3c3.4-4.2,7.8-7,12.7-8.7c10-3.4,20.1-6.5,30.1-9.8c1-0.3,1.9-0.5,2.9-0.8
		c0-0.4-0.1-0.8-0.1-1.2c-1,0-2.1-0.2-3.1,0c-2.8,0.7-5.5,1.7-8.2,2.5c-10.5,3.1-21,6.2-31.4,9.4c-1.4,0.4-2.6,1.4-4,2.1
		c0.2,0.3,0.3,0.5,0.5,0.8c1.1-0.5,2.1-1,3.2-1.4c1.1-0.4,2.2-0.7,3.3-1C492.4,232.6,491.5,233.8,492.8,236.3z M271.8,452.4
		c0.4-0.1,0.7-0.2,1.1-0.2c-0.1-1.3,0-2.7-0.3-4c-1.7-7.4-3.4-14.8-5.1-22.2c-1-4.4-1-4.4-5.3-3.7c-0.1,0-0.2,0.2-0.8,0.8
		c1.6,6.6,3.3,13.5,4.9,20.5c0.3-0.1,0.7-0.2,1-0.2c-1.1-4.5-2.1-9.1-3.2-13.6c0.4-0.1,0.7-0.2,1.1-0.3
		C267.5,437.1,269.6,444.8,271.8,452.4z M199.6,462.9c7.2-17.3,15.8-33.7,26.1-49.5c-1.3,0.3-2.2,0.9-3,1.6c-0.7,0.6-1.3,1.4-2,2.1
		c-0.8,0.7-1.9,1.3-2.4,2.1c-3.4,7.1-6.8,14.2-10.1,21.4C205.1,447.9,199.9,454.4,199.6,462.9z M238.8,125.5c0.3-0.2,0.7-0.4,1-0.6
		c0-0.3,0.1-0.5,0.1-0.8c-1.5-7.5-3.5-15-4.5-22.6c-0.6-4.6-1.6-9.4,0.6-14c-3.6,0.7-3.8,1-3.4,4.2c0.5,4.6,0.8,9.3,1.4,13.9
		c0.7,5.1,1.4,10.1,2.4,15.1C236.7,122.4,237.9,123.9,238.8,125.5z M49.7,209.6c-0.1,0.2-0.2,0.4-0.4,0.6c1,0.6,2,1.4,3.2,1.8
		c13.3,4.9,25.6,11.8,37.6,19.2c1.4,0.8,2.9,1.4,4.3,2.1c0.1-0.3,0.3-0.6,0.4-0.9C80.2,223.9,65.9,214.8,49.7,209.6z M236.5,125.8
		c-1.3-3.6-3-6.8-3.7-10.1c-1.1-5.5-1.5-11.2-2.3-16.8c-0.5-3.6-1.2-7.1-1.8-10.7c-0.3,0-0.6,0.1-0.9,0.1c0,0.3-0.1,0.7-0.1,1
		c0.8,7,1.5,14,2.3,21C230.8,116,232.2,121.4,236.5,125.8z M134.6,158c-1.9-5.2-4.9-9.7-9.4-12.8c-0.2,0.2-0.4,0.3-0.6,0.5
		C127.9,149.8,131.2,153.9,134.6,158z M267.3,444.4c-0.4,0.1-0.8,0.2-1.2,0.3c0.6,3.7,1.2,7.3,1.8,11c0.4-0.1,0.9-0.2,1.3-0.2
		C268.6,451.7,267.9,448,267.3,444.4z"/>
	<path d="M0,408.8c0.2-1.5,0.5-3.1,0.7-4.6c1.7-11.9,9-17.2,20.6-19.1c1.6-0.3,2.4-0.8,3-2.2c1.8-4,3.4-8.1,5.7-11.7
		c3.4-5.5,8.7-6.7,13.9-3.8c-9.1,0.3-10.6,0.9-12.6,5.6c5.2-4.7,11-4.2,16.3-2.3c5.5,2,9.6,6,11,12.5c5.7-4.9,11.9-6.5,19-4.5
		c6.8,2,11.6,6.6,16.8,11.3c0-1,0-2.1,0-3.3c2.2,0.8,2.6,0.8,2.6,11.8c0,4.1-2,8.3-3,12.5c1.2,0,2.7,0.1,4.3,0
		c7.4-0.7,14.5,5.4,16.2,11.6c1.9,7.2,1.7,14.5-0.4,21.7c-0.2,0.7-0.8,1.4-1.2,2.1c0.6-2.5,1.1-5,1.7-7.6c-3,3-5.7,5.7-8.7,8.7
		c2.5-0.4,4.8-0.8,7.1-1.2c-1.4,2.3-3.8,1.9-5.9,1.9c-2.7,0-5.5,0-8.5,0c2.1,10.7-3.9,16.7-12,21.4c-0.3,0.2-0.7,0.3-1,0.5
		c-5.4,4.1-11.9,4-18.1,5.1c-1.6,0.3-3.3-0.3-5.2-0.4c0.7,0.7,1.4,1.2,2,1.8c-10.9-4.9-16.6-14.3-21-25.4c-2.5,1.5-4.9,2.7-7.1,4.3
		c-6.3,4.5-12.9,5.2-19.9,1.9c-1.6-0.8-3.2-1.5-4.9-2c-5.6-1.7-9.3-5.2-11.1-10.7c0-2,0-4.1,0-6.1c2-4.1,3.8-8.4,6.2-12.2
		c2.1-3.4,5-6.3,7.2-9c-3.7-1.7-10.3-0.8-13.4-6.8C0,409.9,0,409.4,0,408.8z M22.6,391.7c-0.9-2.7-2.9-2.6-5-2.1
		c-3.8,1-7.8,6-8.2,10.7c-0.1,1.4,0.1,3.1,0.9,4.2c1.7,2.7,3.9,5,6.1,7.8c-0.6,1.7,0.4,3.1,2.9,2.8c2.3-0.3,4.6-0.6,7-0.9
		c-0.8,2.7-5.5,1-4.2,4.9c-5.8,0.5-6.1,0.7-10.9,4.9c-0.4,0.4-0.8,0.7-1.3,1.1c-7.7,6.8-8.2,17-0.9,24.2c3.3,3.3,7,6.9,12,7
		c8.1,0.2,15.6-1.5,19.7-9.7c0.6-1.1,1.5-2.1,2.7-3.7c0.7,1.8,1.1,2.9,1.7,4.3c0.7-1.4,1.1-2.7,1.9-3.6c0.4-0.5,1.5-0.6,2.3-0.9
		c0.1,0.8,0.4,1.6,0.2,2.3c-0.4,1.3-1.2,2.5-1.5,3.8c-1.4,6.9,1.8,12.4,6.1,17.2c5,5.6,11.5,7.9,18.9,6.1c3.6-0.9,7-2.5,10.5-3.7
		c4.8-1.6,8-4.9,10.4-9.2c2.8-5.1,2.4-9.9-1.2-14.4c-0.3-0.4-0.5-0.8-1.2-1.9c2,0.4,3.3,0.9,4.6,0.9c2.1,0.1,4.3,0.4,6.2-0.2
		c8.3-2.8,12.1-12.2,8.3-20.1c-3.8-7.9-10.3-9.6-19.8-8.7c-2,0.2-3.4,0.1-4.5-1.6c1.3-3.2,3-6.3,3.6-9.6c0.6-3.3,0.1-6.7,0.1-10.1
		c-0.2,0-0.4,0-0.6,0c-1.2,2.7-2.4,5.4-3.6,8.1c-0.3-0.1-0.6-0.2-0.8-0.3c0.6-2.1,1.1-4.3,1.8-6.4c1.8-5.7-0.3-10-5.7-12.7
		c-7-3.5-14.4,0.1-19.6,3.9c-1,0.7-2.1,1.7-3.2,1.8c-1.2,0.1-2.6-0.5-3.8-1c-0.5-0.2-1-1-1.1-1.5c-0.5-6.6-5.5-9.5-10.4-12.4
		c-0.5-0.3-1.3-0.7-1.8-0.5c-4.6,1.2-7.3,4.4-9.4,8.5c-1.6,3.1-0.9,5.3,2.7,7.4c-1.9,0.4-2.9,0.6-3.9,0.9c0.2,0.6,0.5,1.1,0.7,1.7
		C28.3,392.1,25.2,388.6,22.6,391.7z"/>
	<path class="st0" d="M0,410.5c3.1,6,9.6,5.1,13.4,6.8c-2.2,2.7-5.1,5.6-7.2,9c-2.4,3.8-4.2,8.1-6.2,12.2C0,429.1,0,419.8,0,410.5z"
		/>
	<path d="M394,172.2c-0.6,1-1.2,2-1.8,2.9c9.2,11.1,13.5,23.3,7.9,38.1c5-1,9-1.8,13-2.6c0-0.2,0-0.4-0.1-0.6
		c-2.1,0.2-4.2,0.3-7,0.6c1-0.5,1.5-0.9,1.9-0.9c8.6-0.6,17.4-1.4,25.8,1.1c9.8,2.9,19.6,6.2,27.6,12.9c7.8,6.4,13.4,14.6,16.8,24.2
		c1.6,4.6,3.4,9.1,2.4,14.1c-0.8,3.6-2,7.1-3,10.7c-1.7,6.5-5.5,11.4-10.9,15.4c-7,5.2-13.8,10.4-22.4,12.6
		c-1.8,0.5-1.8,1.5-1.4,2.9c2.7,9.1,3.2,18.5,2.4,27.8c-0.3,3.1-1.8,6.2-2.9,9.9c-0.5-1.3-0.7-2-1.3-3.6c-1.9,3.5-3.5,6.5-5.1,9.5
		c-0.5,1-0.4,2.8-2.5,2c-0.2-0.1-0.7,0.5-1.1,0.7c-3.6,3-7.1,5.9-10.7,8.9c-0.8,0.6-1.8,0.9-2.6,1.4c-0.1-0.2-0.3-0.4-0.4-0.6
		c0.5-0.6,0.9-1.2,1.8-2.4c-4,1.6-7.4,2.9-10.9,4.3c0,0.2,0,0.5,0.1,0.7c4.2,0.2,8.3,0.4,12.5,0.6c-6.8,2.1-13.5,0.6-20.2-0.2
		c-0.1,0.3-0.1,0.5-0.2,0.8c3.7,1.1,7.4,2.2,11.1,3.3c0,0.1,0,0.3,0,0.4c-0.9,0-1.9,0.2-2.7,0c-9.8-2.1-19.7-4-29.3-6.6
		c-8.5-2.3-15.7-7.2-21.7-13.6c-3.2-3.4-6.4-6.7-9.9-10.3c-0.9,2-1.9,4-2.6,6c-0.2,0.6,0.2,1.6,0.7,2.2c3.7,4.4,7.5,8.7,11.2,13.2
		c1.2,1.4,1.7,3.4,2.9,4.8c3.3,4,6.8,7.8,10.2,12.1c-1.2-0.5-2.7-0.7-3.5-1.5c-2.8-3-5.4-6.1-8.1-9.2c-0.6-0.7-1.1-1.3-2.1-1.7
		c1.7,3.2,3.5,6.4,5.2,9.5c-0.2,0.1-0.4,0.2-0.6,0.4c-5.4-8.8-10.8-17.7-18.7-24.6c-2.1,2.2-2.2,4.1-0.4,6.4
		c10.2,12.9,20.4,25.8,30.6,38.7c2.8,3.5,5.4,7.1,8.2,10.6c1.4,1.8,2.9,2.5,5.4,1.6c7.5-2.5,15-3.5,22.2,1.5
		c0.7,0.5,2.3,0.1,3.2-0.4c8.5-3.9,20.6-1.8,26.1,4.9c1.4,1.8,2.9,3.9,3.3,6c0.6,2.7,1.9,4.1,4.2,5.3c3.2,1.6,6.3,3.6,9.5,5.4
		c7.2,4.1,10.9,10.5,12.1,18.4c0.4,3-0.5,6.2-0.8,9.6c0.5-0.7,0.8-1.3,1.1-1.8c0.2,0.1,0.5,0.2,0.7,0.2c-0.4,1.2-0.6,2.6-1.2,3.6
		c-5.3,8.2-13.1,12.8-22.5,13.7c-4.5,0.4-9.1-1.9-13.7-2.8c-0.9-0.2-2.4-0.1-2.7,0.4c-4.3,7.2-11.5,9.5-19.1,11.3
		c-3.4,0.8-6.9,1.6-10.3,2.3c-0.5,0.1-1.1,0-1.9-0.6c1.1-0.4,2.2-0.9,2.8-1.1c-4.1-2.4-8.8-4.4-12.8-7.5
		c-11.4-8.9-14.9-20.9-11.3-34.7c0.8-2.9,0.5-5.1-1.1-7.5c-1.4-2.1-2.9-4.3-3.3-6.6c-1.1-6.6,2.8-11,7.4-14.9
		c1.1-0.9,2.4-1.7,3.8-2.7c-17.3-15.3-29.4-34.5-43.7-52.4c-2.9,3.3-5.9,6.4-8.5,9.7c-0.5,0.6-0.1,2.3,0.4,3.1
		c8.3,13.8,16.9,27.3,27.2,39.8c1.5,1.8,2.9,3.8,4.2,5.6c-3,2.9-4.6,0.7-6-1.4c-3.6-5.5-7.1-11.1-10.7-16.7
		c-5.6-8.6-11.2-17.1-16.8-25.6c-0.5-0.8-1.2-1.4-1.3-1.6c-7.8,4.2-15.3,8.5-23,12.4c-11.8,6.1-24.4,7.8-37.5,7.4
		c-11.5-0.4-21.5-4.4-30.1-11.5c-4.5-3.8-7.9-8.8-11.5-13.5c-1.8-2.4-2.5-5.4-1.5-8.5c0.2-0.6,0-1.2,0-2.5
		c-12.6,12.8-28.9,15.3-44.8,19c0,0,0.1,0.5,0.2,1.1c-1.9,0-3.6,0-5.3,0c-2.8,0.1-5.7,0.1-8.5,0.3c-1.6,0.1-2.7,0-4.3-0.9
		c-2.1-1.3-5.1-1.2-7.4-2.3c-4.4-2.1-6.7-0.2-9.5,3.1c-5.2,6.1-11.3,11.5-16.9,17.4c-2.2,2.3-3.9,4.9-5.9,7.4
		c-1.1,1.4-2.3,2.9-5.3,2.2c0.8-1.5,1.3-3,2.2-4c8.4-8.6,16.8-17.1,25.3-25.6c0.6-0.6,1.1-1.4,1.6-2c-3.2-2-6.4-3.7-9.3-5.7
		c-1.7-1.2-3-0.9-4.5,0.1c-6,4-12.1,8-18.2,11.9c-1.5,0.9-3.3,1.3-5,2c-0.1-0.2-0.3-0.5-0.4-0.7c5.8-4.5,11.7-9.1,17.5-13.6
		c-0.1-0.2-0.2-0.3-0.3-0.5c-2.5,1.5-5.1,3-7.5,4.6c-2.5,1.7-5,3.6-7.4,5.5c-2.4,1.9-4.7,3.9-7.3,5.5c1.2-3.1,3.9-4.8,6.3-6.6
		c2.6-1.9,5.3-3.8,8-5.6c2.7-1.8,5.5-3.4,8.5-5.2c-0.5-0.6-0.8-1-1.6-1.8c1.8-0.3,3.2-0.5,4.9-0.7c-4.1-4.6-8.1-9.1-12.6-14.2
		c-9.2,5.5-18.5,11.1-27.9,16.5c-3.2,1.9-6.5,3.6-9.8,5.2c-1.2,0.6-2.8,0.5-4.2,0.8c-0.1-0.3-0.3-0.6-0.4-0.9
		c2.7-1.9,5.4-4.1,8.3-5.8c6.2-3.7,12.6-7.1,18.9-10.7c4.1-2.3,8.2-4.6,12.2-7c0.7-0.4,1.4-1.7,1.3-2.4
		c-3.6-22.6,2.3-38.7,21.9-49.5c2.9-1.6,6-2.7,9.5-4.3c-1.3-0.7-2.3-1.3-3.3-1.9c-5-2.9-10.7-5.2-15-8.9
		c-9.8-8.4-18.7-17.9-21.2-31.2c-1.7-9,0.1-18,4.8-26.1c2.8-4.9,6.3-9.3,9.8-14.3c-9.7-8.5-15.5-21-26.9-28.3
		c1.1,0.4,2.2,0.8,3.3,1.1c0.1-0.1,0.2-0.2,0.3-0.3c-2.8-3.2-5.7-6.3-8.7-9.6c1.7-0.3,3-0.5,4.6-0.8c9.9,11.3,20.2,23.1,30.6,34.9
		c2.4-2.6,4.4-4.7,6.8-7.3c-9.6-12.3-21.3-23.5-32.1-36.1c1.8-0.3,3-0.5,4.4-0.7c-0.7-2.5-3.6-4.1-2.2-6.8c11.2,14,22.3,28,33.5,42
		c3.8-2.3,7.3-4.5,11.1-6.8c-11.5-15.3-23.1-30.7-34.8-46.2c-5.7,3.6-11.6,5.8-18.4,5.7c-0.7,0-1.7,1-2,1.8
		c-2.7,6.8-6.5,12.8-11.7,17.8c-3.2,3-6.7,5.9-10.6,7.9c-4.6,2.5-7.8,1.5-11.5-2.3c-1.6-1.7-3.1-3.5-4.8-5.4c-0.7,0.3-1.4,0.6-2.1,1
		c-12.5,7.1-27.1-1.2-27.5-15.5c-0.2-6.4,1.3-12.3,4.6-17.5c2.1-3.2,5.6-5.4,8.5-8c-1-4-2.3-8.5-3.2-13c-1.3-6.9,1.2-12.7,5.9-17.5
		c1.5-1.6,4.2-2,6.5-2.7c1.2-0.4,2.6-0.1,3.9-0.1c0.4-1.9,0.7-3.6,1.2-5.3c2.3-7.4,7.9-11.4,14.7-14.2c9.8-4.2,16.1-2.6,22.8,5.8
		c1,1.3,2.2,2.6,3.6,3.5c1,0.7,2.6,1.3,3.7,1c6.1-1.6,11.9-0.9,17.7,1.3c5.9,2.3,8.3,6.6,7,12.8c-1,4.9-2,9.8-2.4,14.8
		c-0.2,2.8,0.5,5.7,1.1,8.5c1.3,6.9,0.8,13.2-5.3,18.1c1,1.4,0.8,3.6,3.4,2.8c0.2-0.1,0.7,0.7,1.1,1.2c5,6.7,9.9,13.5,15.1,20
		c5.5,6.9,11.2,13.6,16.8,20.4c1.2,1.5,2.4,2,4.5,1.7c5.5-0.9,11-1.7,16.6-1.9c2.6-0.1,5.2,1.2,7.9,1.8c1.1,0.3,2.3,0.2,3.2,0.7
		c2.7,1.5,5.2,3.2,7.8,4.7c3,1.8,6.2,3.4,9.3,5.1c2.1-4.3,4.4-8.2,6.1-12.4c6.4-16.7,19.7-24.5,36.3-27.8c6.7-1.4,13.6-2.3,20.4-2.7
		c8.3-0.5,15.8,1.8,22,7.7c5.5,5.2,10.5,10.8,13.9,17.9c2.4-1.4,4.8-3,7.4-4.2c3.3-1.6,6.9-2.7,10.2-4.3c8.4-3.8,17.5-2.2,26.2-3.8
		c2.4-0.4,4.8-0.3,7.2-0.6c9.7-1,18.8,1.9,28,4.1c2.7,0.7,4.3,0.3,6-2.1c5.2-7.1,8.8-15,11.6-23.3c0-0.1-0.1-0.3-0.2-0.8
		c-1.5,2.2-2.9,4.2-4.3,6.3c-0.2-0.1-0.4-0.2-0.6-0.3c1.7-2.9,3.3-5.7,4.9-8.5c3,0.8,2.1,2.8,2.3,4.6c0.5-0.8,1-1.8,1.7-2.5
		c0.3-0.4,1-0.5,1.5-0.8c0.1,0.6,0.4,1.3,0.2,1.7c-0.9,1.5-2.8,2.6-1.5,4.8c0.2,0.3-0.8,1.2-1.2,1.8c-4.1,6.2-8.2,12.4-12.3,18.6
		c-1.8,2.6-0.9,4.4,1.5,6c0.9,0.6,1.8,1.2,3.2,2.1c4.3-5.6,8.5-11.3,12.9-16.8c4.3-5.4,8.8-10.8,13.4-16.3c-3.4-1.8-6.2-4.8-6.9-8.7
		c-3.9,0.8-7.5,2-11.2,2.1c-4.8,0.1-8.9-1.8-10.5-6.9c-0.2-0.5-0.4-1.1-0.7-1.5c-3.4-4.2-3.4-8.5-0.9-13.2c0.7-1.3,0.7-3.3,0.4-4.8
		c-1.1-5.5-0.3-10.6,2.4-15.6c5.1-9.4,13-15.2,22.8-19c-8.6,4.6-16.4,10-20.7,19.2c1.9-1.8,3.7-3.9,5.8-5.4
		c3.4-2.6,7.4-3.8,11.7-3.4c2,0.2,3.5-0.2,5.1-1.5c3.7-3.1,7.5-6.1,11.5-9.3c-0.9-0.4-1.6-0.8-2.3-1.1c0.2-0.2,0.5-0.5,0.6-0.4
		c2.8,0.8,5.2-0.4,7.7-1.5c4.1-1.9,8.3-3.7,12.6-4.9c2.1-0.6,5-0.1,6.9,1c4.1,2.3,7.8,5.3,11.6,8c1.3,0.9,2.6,1.8,4,2.2
		c5.9,1.8,11.2,4.7,16.3,8.3c5.4,3.8,6.5,14.6,1.4,18.8c-0.3,0.2-0.5,0.6-0.7,0.9c5.9,5.9,10.2,12.6,8.7,21.4
		c-1.5,8.5-5.6,15.1-14.1,18c2,10.9-3,15.4-10.8,19.3c-6.2,3.1-12.3,3.8-18.6,0.7c-1.3-0.6-2.8-1.1-4.2-1.3
		c-0.8-0.1-1.7,0.4-2.5,0.7c-0.2,0.3-0.3,0.6-0.5,1c-2.2-3-4.5-5.9-6.7-8.9c-0.4-0.6-0.9-1.2-1.4-1.7c-4.6-3.7-9.3-7.4-14.2-11.2
		c-1.3,1.4-2.5,2.6-3.7,3.9c0.8,0.5,1.3,0.8,2,1.2c-4.8,5.9-9.6,11.7-14.3,17.5c1.4-2.1,2.8-4.3,4.2-6.4c1.6-2.4,3.3-4.7,4.9-7.1
		c-0.3-0.2-0.6-0.5-1-0.7c-6,7.8-12,15.6-18.2,23.7c1,0,1.2,0.1,1.3,0C393.4,172.9,393.7,172.5,394,172.2z M123.5,203.4
		c-1.2,2-2.3,3.3-2.9,4.7c-5.1,12.9-7.2,26.3-5.6,40.1c0.2,2,1.2,4,2.1,5.9c1.1,2.1,2.5,4,4.1,6.6c-1.3-0.4-1.8-0.6-2.7-1
		c0.7,0.9,1,1.5,1.5,1.9c7,7.1,15.4,11.9,24.6,15.4c5,1.9,10.2,3.4,15.1,5.5c2.6,1.1,4.9,3.2,7.3,4.9c-0.2,0.3-0.3,0.6-0.5,0.8
		c-1.6-0.2-3.1-0.2-4.6-0.6c-6.6-1.8-12.9-1.3-18.5,3c-5.3,4.1-11,7.8-15.6,12.6c-7.9,8.1-11.7,17.7-8.3,29.2c1.1,3.6,1.5,3.9,4.7,2
		c4.9-2.7,9.6-5.6,14.5-8.3c1.2-0.7,2.6-0.9,4-1.4c0.3,3.2-1.2,4.5-3.3,5.8c-4.9,2.8-9.7,5.9-14.5,8.9c-0.7,0.5-1.5,1.9-1.3,2.4
		c1.5,3.5,3.5,6.5,6.9,8.4c3.1,1.7,5.6,1.9,8.6-0.5c3.9-3.1,8.2-5.8,12.4-8.5c3.1-2,6.6-2.5,10.2-2.8c0.8-0.1,1.6,0.1,2.4,0.1
		c-0.4,0.6-0.7,1.4-1.3,1.8c-6.1,4.4-12.3,8.8-18.4,13.1c-1.3,0.9-2.6,1.9-4.2,3.1c2.8,1.6,5.2,3,7.5,4.5c1.6,1,2.9,1,4-0.7
		c1.8-2.6,3.6-5.2,5.4-7.8c0.9-1.3,6.1-2.5,7.4-1.7c0.5,0.3,0.7,1,0.9,1.2c-5,2.6-8.4,6.7-11.8,11c4.4,1,8.6,1.6,12.8,2.1
		c6.7,0.8,13.2-0.6,19.7-2c5.5-1.2,11.2-2,16.5-3.8c9.5-3.3,18.5-7.7,25-16c0.1-0.1,0.3,0,0.9-0.1c0.3,0.8,0.7,1.7,0.9,2.6
		c0.3,1.8,0.3,3.7,0.5,5.5c0.1,0.6,0.3,1.1,0.6,1.6c0.5,0.8,1.4,1.4,1.6,2.2c0.7,2.9,1.4,5.7,4,7.7c6.3,4.9,13.1,8.7,21.2,10
		c4.4,0.7,8.7,1.9,13.1,2.5c7.4,1,15,2.8,22.4,2.3c11.3-0.7,21.2-6.2,30.4-12.8c1.6-1.2,1.5-2.4,0.2-3.7c-1.5-1.6-3-3-4.4-4.7
		c-0.5-0.6-0.7-1.6-1-2.5c0.9,0.4,1.8,0.7,2.6,1.2c0.7,0.5,1.1,1.2,1.6,1.8c0.1-0.1,0.2-0.2,0.3-0.3c-1.1-1.9-2.1-3.9-3.2-5.8
		c0.3-0.2,0.5-0.3,0.8-0.5c3.6,2.2,3.9,7,7.3,9.8c2.7-2.9,5.3-5.8,8-8.7c1.1-1.2,1-2.2,0.1-3.4c-1.5-2-2.9-4-4.5-6.2
		c1-0.4,1.8-0.9,1.9-0.7c1.8,1.9,3.4,3.9,5.2,5.9c2.2-1.5,2.6-3.1,0.9-5.1c-1.2-1.4-2.2-2.9-3.4-4.6c3.5-1.4,4.9,1.9,7.4,2.5
		c0.4-0.5,0.9-1.1,1.3-1.6c3.2-3.9,3.1-8.6,3.4-13.2c0.1-1.9,0.5-3.8,0.8-5.7c0.4,0,0.7-0.1,1.1-0.1c0.7,1.2,1.5,2.4,2.2,3.5
		c0.5-0.2,1.1-0.3,1.7-0.5c0.1,0.8,0.6,1.7,0.4,2.3c-1.5,3.2-0.7,6.2,0.6,9.1c2.6,5.9,5.4,11.7,12.2,14c2.2,0.7,4.5,1.5,6.6,2.6
		c8.7,4.4,18.5,5.6,27.8,8.1c4.5,1.2,9.3,0.6,13.5-1.9c5.8-3.4,11-7.7,15-13.1c2-2.8,3.3-6.1,5.5-8.6c5.5-6.2,7.8-13.3,7-21.5
		c-0.7-7.3-3.1-10.4-10.2-12c-0.5-0.1-1.1-0.3-1.8-0.6c1.2-0.5,2.2-0.8,3.2-1.2c-1.2-2.4-4.7-2.4-4.5-5.7c3.1-0.2,5,4.1,8.2,2
		c-0.1-0.9-0.2-1.7-0.4-3.2c1.2,0.9,1.9,1.5,2.6,1.9c0.7,0.4,1.7,0.9,2.2,0.7c4.3-1.9,8.7-3.6,12.6-6.1c3-1.9,5.4-4.8,8.1-7.3
		c0.1,0.1,0.2,0.3,0.3,0.4c-1,1.2-2,2.5-3,3.7c3.1-1.7,5.9-3.7,8.5-6c3.6-3.2,4.9-7.4,3.8-12.1c-0.5-2.3-1.3-4.5-2-7.1
		c2.4,0.4,3.4,1,3.1,3.5c-0.3,2.8,0.3,5.6,0.5,8.5c6.5-6.1,3.4-24.9-2.3-30.4c0.8,2.5,1.6,4.9,2.4,7.2c-0.3,0.1-0.5,0.2-0.8,0.3
		c-0.5-1.1-1.1-2.2-1.6-3.4c-3.3-7.9-8.8-13.9-15.7-18.8c-8.5-6.1-17.9-10.4-27.4-14.5c-0.7-0.3-1.6-0.5-2.4-0.5
		c-4.1,0-8.2-0.3-12.3,0.1c-4.2,0.4-8.5,0.8-11.7,4.2c-1.5,1.6-2.9,1-3.7-1.1c-1.2,0.1-2.4,0.2-3.4,0.3c0.4-1.9,0.8-3.5,1.2-5.2
		c-0.1,0-0.3-0.1-0.4-0.1c-0.9,2.2-1.8,4.5-2.7,6.7c-0.3-0.1-0.6-0.1-0.9-0.2c0.2-1.8,0.1-3.6,0.7-5.3c0.8-2.5,2.1-4.9,3.2-7.4
		c3-6.3,0.1-17.7-4.8-21.8c-3.2-2.7-3.3-2.8-5.7,0.9c0.4,0.6,0.8,1.2,0.7,1.2c-1.2,0.6-2.6,0.9-3.1,1.7c-2.5,3.8-4.6,7.8-7.1,11.6
		c-1.3,2-3.1,3.7-4.7,5.6c-0.3-0.2-0.6-0.5-1-0.7c4.2-8.8,10-16.8,15.5-24.8c-2.9-2.9-4.5-3.3-6.3-1.9c-0.1-0.6-0.2-1.2-0.3-2.3
		c-1.1,1.2-1.9,1.9-2.5,2.8c-3,4.5-5.8,9.1-8.8,13.6c-0.9,1.3-1.8,2.7-4,2.2c4.1-6.5,8.1-12.8,12.2-19.3c-5.7-2.4-10.5-5.1-16.2-5
		c-8.7,0.2-17.5,0.4-26.2,0.7c-1.6,0.1-3.3,0.7-4.9,1.1c-7.4,1.9-13.3,6.4-19.4,10.7c-1.5,1.1-3.1,2.1-4.7,3.1
		c-0.2-0.2-0.3-0.5-0.5-0.7c6.9-5.5,13.8-10.9,22.2-14.2c-10.9,1.8-21,5.5-29.5,12.9c-0.3-1.1-0.5-2-0.9-3.4
		c-1.5,1.7-2.7,3.1-3.9,4.5c-0.3-0.1-0.7-0.2-1-0.2c0-2,0.2-4,0-5.9c-0.5-3.4-0.7-6.9-2-10c-3.6-8.4-11-12.2-19.2-14.2
		c-11.9-2.8-23.6-1.4-35.1,2.8c-11.6,4.2-20.2,12.1-26.1,22.7c-2.8,5.1-5.2,10.6-1.5,16.7c-1.2-0.9-2.4-1.7-4.3-3
		c0.5,2.2,1,3.9,1.4,5.8c-1.4,0.2-3.6,1-3.9,0.5c-1.4-1.9-3.3-2.6-5.3-3.6c-4.5-2.3-8.9-4.9-13.3-7.5c-4.7-2.8-9.8-3.1-15.1-2.8
		c-0.2,0-0.4,0.2-0.8,0.4c0.6,0.6,1.1,1,1.8,1.7c-1.6,0.8-2.9,1.4-4.6,2.2c0.2-1.1,0.2-1.6,0.4-2.5c-1.5,0.1-2.8,0.3-4.1,0.4
		c-2.6,0.1-2.8,1.5-1.7,3.3c1.3,2.1,2.8,4.1,4.4,6.1c1.9,2.4,3.9,4.8,6.2,7.5c-3.4,0-5.6-1.1-7.3-3.2c-2.8-3.4-5.5-6.8-8.4-10.1
		c-0.6-0.7-1.5-1.7-2.1-1.5c-3.8,0.7-7.5,1.8-11,4.8c5.8,5,11.3,9.8,17,14.8c-0.8,0-1.3-0.1-2.3-0.1c1.1,0.9,1.9,1.5,2.7,2.2
		c-0.1,0.4-0.3,0.7-0.4,1.1c-0.9-0.2-1.9-0.2-2.5-0.7c-3.8-3.3-7.8-6.5-11-10.2c-2.9-3.4-6-3.9-10.1-3c-5.5,1.2-6,2.1-2.3,6.3
		c5.2,5.8,10.5,11.4,15.8,17.2c-1.5,1.2-3.2,2.8-5.4,0.9c-1.5-1.3-2.8-2.9-4.2-4.4C132.4,213.2,128.2,208.5,123.5,203.4z
		 M411.3,89.6c-4.7-0.1-8.9-0.2-13.1-0.4c-2.7-0.1-4.6,1.2-6.2,3.2c-2.4,3-3.4,6.5-3.3,10.4c0.1,2.6,0.8,4.3,4,4.6
		c3.3,0.3,5.3,2.4,5.9,5.4c0.5,2.6-0.8,4.4-3.5,4.6c-3.8,0.3-5,1.6-5.6,5.5c-0.2,1.6,0.3,2.5,1.9,2.7c4.7,0.6,9.4,0.8,13.7-2
		c0.6-0.4,1.5-0.4,2.3-0.6c-4.4,5.9-10.6,4.2-16.5,4.2c2,2.6,4.5,3.3,7.4,2.8c4.7-0.9,8.6-3.3,11.6-7.1c1.7-2.1,3.3-4.2,5.1-6.3
		c1-1.2,2.3-2.1,3.5,0c-0.2,0.5-0.4,1-0.7,1.5c-1.6,2.6-3.3,5.2-5,7.7c-2,3.1-2,6.2,0.6,8.9c1.8,1.9,4.1,3.5,6.5,4.7
		c7.2,3.7,14.4,4.2,21.2-1.2c0.5-0.4,1.5,0,2.5,0c-0.8,1.7-1.3,3-1.8,4.3c1.4,0.3,2.6,0.6,3.8,0.9c-0.9,0.9-1.8,1.3-2.8,1.3
		c-2.1,0.1-3,1.2-3.2,3.1c-0.1,0.9-0.3,1.8-0.5,2.7c-0.7,3.9,0.6,5.7,4.2,7.3c7,3.1,13.8,2.1,20.6-0.3c5-1.7,8-5.4,9.4-10.5
		c0.7-2.7,0.2-4.9-1.7-6.9c-0.8-0.8-1.4-1.7-2-2.6c0.2-0.2,0.3-0.4,0.5-0.6c1.1,0.3,2.2,0.7,3.3,1c6.4,1.9,9.8,0.6,11.4-5.8
		c1.3-5,1.5-10.4,1.7-15.6c0.1-6.4-3.2-9.5-9.5-10.2c-1.8-0.2-3.4-1-5.2-1.5c0.1-0.3,0.1-0.6,0.2-0.9c1.5-0.3,3.1-0.5,4.5-0.8
		c1-0.2,2-0.6,2.8-1.2c5-4.2,5.2-12,0.5-16.6c-4.7-4.5-10.8-5.2-16.8-6.7c-1.2,2.4-0.2,6.1-4.4,6.5c0.7-2,1.2-3.6,1.9-5.6
		c-1.7,0.3-2.8,0.5-3.8,0.7c0.3-1.2,1-1.7,1.5-2.3c0.4-0.4,0.9-1.2,0.7-1.6c-1.2-3.1-2.8-5.9-6.3-7.6c0.2,1,0.2,1.6,0.4,2.6
		c-0.8-0.6-1.5-0.9-1.8-1.4c-2.3-3.5-5.6-3.8-9.3-2.8c-1.3,0.3-2.8,0.3-4.1,0.8c-1.9,0.8-3.9,1.8-5.6,3c-1.2,0.8-1.7,2-0.2,3.5
		c0.8,0.7,1.1,2.1,1.6,3.1c-0.7-0.1-0.8-0.5-1-0.7c-0.8-0.8-1.7-2.2-2.5-2.2c-0.8,0-1.7,1.4-2.4,2.3c-0.6,0.8-0.9,1.8-1.4,2.7
		c-0.4-0.2-0.8-0.3-1.2-0.5c0.7-1.9,1.3-3.8,2-5.7c-0.2-0.2-0.4-0.4-0.6-0.6c-3.4,3-6.9,5.8-10.1,8.9c-1.5,1.4-2.3,3.3-1.2,5.6
		c0.2,0.4,0,1.3-0.3,1.7c-0.2,0.3-1.1,0.2-1.5,0c-0.6-0.3-1.2-0.8-1.8-1.2C411.4,88.6,411.3,89.4,411.3,89.6z M53.9,96.2
		c-1.7-1.3-2.8-2.3-4.1-2.9c-1.1-0.5-2.6-1.2-3.5-0.8c-3.8,1.5-7,3.9-8.1,8.1c-1.4,5.3-1.1,10.6,1,15.6c1.2,2.8,3.3,5.3,5,7.9
		c0.4,0.6,1,1.1,1.5,1.7c-0.8,0.6-1.4,1.3-2.3,1.6c-1.6,0.6-3.5,0.6-4.9,1.4c-5.3,3.2-8.6,8.1-10.3,14c-0.3,1-0.3,2.4,0.2,3.2
		c3.8,5.1,7.5,10.3,11.7,15.1c2.1,2.4,4.7,1.5,5.6-1.6c0.7-2.2,1-4.6,1.4-6.9c0.3,0,0.5,0,0.8,0.1c-0.2,2.9-0.4,5.9-0.5,8.8
		c3.9-1.9,4.1-2.3,4.7-7c0.1-0.9,1.5-1.7,2.3-2.5c0.6,0.8,1.4,1.5,1.6,2.4c0.2,0.8,0.1,1.9-0.2,2.7c-1.3,3.5,0.2,6,2.6,8.1
		c4.4,3.9,11.1,3.7,15.8-0.4c6.8-5.9,11.4-13.4,14.9-21.6c0.3-0.8-0.2-2.6-0.9-3.2c-3.2-2.4-4-5.7-3.6-9.3c0.1-1.2,1.3-2.6,2.4-3.2
		c2.2-1.1,4.4,0.4,5.1,3.6c0.5,2.4,0.6,4.9,0.9,7.5c2.5,0,5,0.8,7.1-1.5c0.9-1,2.2-1.7,3.4-2.4c0.7-0.5,2-0.6,2.3-1.2
		c3.1-5.6,6.1-11.2,8.9-16.9c1-2.1-0.4-3.5-2.6-3.9c-0.8-0.1-1.6-0.2-2.4-0.4c0-0.2,0-0.5-0.1-0.7c1.4-0.7,2.8-1.5,4.2-2.2
		c-0.1-0.3-0.1-0.5-0.2-0.8c-1-0.1-2.1-0.1-3.1-0.4c-0.9-0.2-1.8-0.6-2.7-0.9c0.5-0.8,1-1.7,1.7-2.4c1.5-1.4,3.2-2.5,4.6-4
		c4.3-4.7,1.8-13.9-4.2-16c-5.1-1.7-9.7,0-14.2,2.1c-1.2,0.6-2.4,1-3.6,1.6c0.3-2,0.6-3.6,0.8-5.1c-0.3-0.1-0.6-0.2-1-0.3
		c-0.6,1-1,2.1-1.7,3c-0.7,0.9-1.6,1.7-2.4,2.6c-0.2-0.2-0.5-0.3-0.7-0.5c0.2-1,0.4-1.9,0.7-2.9c1.2-4.4,0.2-7.3-3.9-9.2
		c-2.8-1.2-6-2.1-9.1-2.4c-8.2-0.8-18.4,3.4-19.3,15.1C55,91.4,54.4,93.5,53.9,96.2z M387,433.7c-0.9,1-1.3,1.7-1.9,2.2
		c-8.4,8-8.4,21.1,0.4,28.8c6,5.3,13.2,8,21.1,9.2c7.6,1.1,13.6-1.8,19.2-6.2c1.1-0.9,2-2,1.4-3.8c-0.3-0.9,0.6-2.1,0.9-3.2
		c0.5-0.2,1-0.4,1.5-0.6c0.9,1.3,1.8,2.6,2.7,3.9c3,4,7.2,4.6,11.7,4c1.8-0.2,3.7-0.5,5.5-1c10.9-3,19.4-12.6,15.1-25.9
		c-2.2-6.8-14.1-17-22.8-13.9c-2.4,0.8-4-0.2-5.1-2.4c1-0.6,1.9-1.1,2.8-1.6c-1.6-1.7-3-3.2-4.4-4.7c0.2-0.2,0.4-0.5,0.6-0.7
		c1,0,2.1,0,3.6,0c-2.2-5.2-6-8.3-10.8-9.8c-4.3-1.3-8,1.4-11.9,2.9c-2.5,1-1.4,3.2-2.2,4.7c-0.1,0.2-0.3,0.4-0.5,0.6
		c-0.7-0.1-1.7-0.6-2-0.3c-1.8,1.9-2.3,0.4-2.5-1c-1.1-6.2-6.9-10.4-13-9.1c-9.7,2.2-17.9,10.8-18.2,22.2c-0.1,2.9,1.1,4,4.1,4
		c0.6,0,1.1,0.2,2.1,0.3c-0.8,0.8-1.3,1.2-2.1,2C383.9,434,385.2,433.9,387,433.7z M242,369.4c4.4,8.1,27.4,11.7,34,8.3
		c-5.9-1-11.7-1.7-17.4-3C252.9,373.3,247.4,371.2,242,369.4z M28.7,159c-7.1-14.3-3.4-25.4,10.3-33.7c-4.6,0.1-8.1,2.1-10.3,5.8
		c-3.4,5.8-4.7,12.1-4.2,18.7C24.9,153.4,26.1,156.8,28.7,159z M449.6,161.4c6.7,4.9,22.3-1.6,24.6-10.2
		C466.8,159.5,466.8,159.5,449.6,161.4z M27.4,148.6c-0.3,6.5,6.4,14.4,11.7,14.4C35.3,158.3,31.5,153.7,27.4,148.6z M390.4,470.6
		c-0.1,0.1-0.1,0.1-0.2,0.2c1.5,0.8,3,1.7,4.6,2.4c3,1.2,6.1,2.1,9,3.6c2.9,1.5,5,0.1,7.3-0.7C404.1,474.2,397.3,472.4,390.4,470.6z
		 M56.2,80c2.8-1.9,5.5-4.7,8.8-6c3.4-1.4,7.4-1.3,11-1.9C69.1,68.5,60.1,72.3,56.2,80z M227.6,350.5c-3.4,5.8-0.4,14.7,6.1,18.8
		c-2.3-4.4-4.7-8.8-7.1-13.4c0.7-0.1,1.2-0.2,1.6-0.3C228,353.9,227.8,352.2,227.6,350.5z M110.1,185.9c-0.3,0.2-0.5,0.5-0.8,0.7
		c4.3,4.7,8.6,9.4,12.9,14c0.3-0.3,0.6-0.5,0.9-0.8C118.8,195.2,114.4,190.6,110.1,185.9z M386,121c3.4-4.1,3.7-6.4,1.1-8.6
		C385.7,115.1,384.1,117.8,386,121z M85.7,132.8c2,1.2,3.3,1.9,4.9,2.8c-0.1-1.1,0.1-2.2-0.4-2.9c-0.8-1.3-2-2.3-3.1-3.4
		C86.6,130.5,86.1,131.8,85.7,132.8z M298,177.5c0.2,0.3,0.3,0.6,0.5,0.9c3.9-2.1,7.7-4.2,11.6-6.3c-0.1-0.2-0.3-0.5-0.4-0.7
		C306,173.9,301.1,173.9,298,177.5z M170.5,368.3c0.1-0.4,0.1-0.9,0.2-1.3c-4.5-0.4-8.9-0.9-13.4-1.3c0,0.3-0.1,0.6-0.1,0.9
		C161.7,367.1,166.1,367.7,170.5,368.3z M153.7,344.3c-0.2-0.3-0.4-0.6-0.5-0.8c-3.5,2.2-6.9,4.4-10.4,6.7c0.2,0.3,0.4,0.7,0.7,1
		C146.8,348.8,150.3,346.6,153.7,344.3z M94.5,82.3c0.6,1.4,0.9,2.2,1.3,3c2.4-0.9,4.3-1.7,6.3-2.5c-0.1-0.2-0.1-0.4-0.2-0.6
		C99.6,82.3,97.4,82.3,94.5,82.3z M412.6,408.9c0.1,0.3,0.2,0.6,0.3,0.9c2.8-1.1,5.6-2.3,8.4-3.4C418.1,406,415.1,406.7,412.6,408.9
		z M234.7,364.5c-0.3,0.3-0.6,0.6-1,0.9c2.4,2.3,4.8,4.6,7.2,6.9c0.2-0.2,0.4-0.4,0.5-0.6C239.2,369.4,237,366.9,234.7,364.5z
		 M434.4,342.4c0.2,0.1,0.5,0.2,0.7,0.3c1.3-2.8,2.6-5.7,3.9-8.5c-0.3-0.1-0.6-0.3-0.9-0.4C436.9,336.7,435.7,339.6,434.4,342.4z
		 M428.8,147.7c1.3,0.9,2.6,1.9,4.2,3C433.2,147.5,433.2,147.5,428.8,147.7z"/>
	<path d="M320.2,495.3c-10.1,1.1-16.6-4.6-21.5-12.3c-1.5-2.3-0.8-6-1.1-9.1c-0.1-1.4,0.2-3-0.3-4.3c-2.3-6.1-2-12.3-0.6-18.4
		c1.7-7.7,7.8-11,15.4-8.6c3.8,1.2,7.5,2.7,11.2,3.9c0.6,0.2,1.4,0.1,2-0.2c4.4-2.2,8.3-1.7,12.2,1.4c0.9,0.7,2.3,0.8,3.5,0.9
		c2.4,0.1,4.9-0.5,7.1,0.1c4.7,1.3,7.1,6,6.1,10.8c-0.2,1-0.4,2.2-0.1,3.2c2.4,7.5,1.1,12.6-4.7,17.6c-1,0.9-2,1.7-2.9,2.6
		c-2.9,2.7-6.2,4.3-10.3,4.2c-0.9,0-2.3,0.4-2.5,1c-2.1,6.3-7.2,7.2-12.8,7.1C320.8,495.3,320.5,495.3,320.2,495.3z M347.2,463.8
		c3.1-4.4,2.8-5.4-1.8-8c-3.2-1.8-6.2-2.2-9.6,1.2c-0.5-1.9-0.7-3-1-4.1c-0.2-0.8-0.4-2-0.9-2.3c-0.7-0.3-2-0.3-2.7,0.2
		c-1.8,1.2-3.3,2.6-3.3,5.1c0,0.8-1,2.3-1.6,2.3c-1.9,0.2-1.4-1.5-1.4-2.6c0-0.6,0-1.2,0-1.7c0.3,0.4,0.5,0.7,0.8,1.1
		c-1.1,0.5-2.2,1.4-3.2,1.3c-0.8-0.1-1.7-1.3-2.3-2.1c-1.6-2.1-3.1-4.2-4.5-6.3c-2.3-3.6-7.9-3.2-9.9,0.3c-1.8,3.1-3.7,6.2-5,9.6
		c-0.9,2.5-1.2,5.5-0.9,8.1c0.2,2.8,1.4,5.5,5.1,5.9c-3.6,3.1-3.4,3.1-3.6,6.1c-0.4,5.5,2.8,8.6,7,11.4c7,4.7,13.9,4.8,20.4-0.6
		c1.7-1.4,3.7-2.9,2.9-5.7c-0.2-0.7,0.1-1.4,0.2-2.1c0.8,0.3,2,0.3,2.3,0.9c0.9,1.7,2.2,1.4,3.6,1.2c6.4-0.9,10.4-5,13.4-10.3
		c2-3.4,1.1-6.2-2.4-8C348.3,464.4,347.8,464.1,347.2,463.8z M352.1,456.9c0.1-3.3-1.4-5.5-4.3-6.4
		C349.1,452.5,350.5,454.6,352.1,456.9z M342.1,484.6c0-0.3-0.1-0.7-0.1-1c-2.3,0.4-4.5,0.8-6.8,1.1c0.1,0.3,0.1,0.7,0.2,1
		C337.5,485.4,339.8,485,342.1,484.6z"/>
	<path d="M225.1,55.8c0.5,0.3,0.9,0.5,1.8,1c-6.5,1.6-12.3,1.1-17.6-1.6c-1.8-0.9-3-3.5-3.7-5.5c-1.2-3.4-0.8-6.9,0.4-10.4
		c0.4-1.1,0.1-2.4-0.1-3.6c-0.5-3.1-1.8-6.1-1.7-9.2c0.1-5.7,4.3-9.3,8.3-12.5c2.6-2,5-3.9,6.9-6.7c5.8-8.5,18.3-9.8,25.7-2.7
		c1.8,1.7,3.4,2.6,5.8,2.3c3-0.4,5,1,6.2,3.6c1,2.1,2,4.2,2.9,6.3c1.9,4.6,1,7.9-3.5,11.8c-1.6,1.4-2.1,2.5-1.4,4.7
		c2.1,6.7,1.3,13.2-3,19c-1.9,2.6-4.1,4.6-7.4,4.9c-3.4,0.2-6.8,0.5-10.3,0.3c-1.3-0.1-3.1-0.8-3.9-1.8
		C228.7,53.3,227.1,53.6,225.1,55.8z M214.3,37.2c-4.9,4.6-5.2,5.2-4.5,9.3c0.6,4.1,3.4,6.8,8,7.8c5,1.1,7.4,0,10.1-4
		c0.3-0.5,1.7-0.6,2.3-0.3c0.8,0.4,1.2,1.3,1.8,2.1c2.4,3.2,5.1,4,8.9,3.1c6.2-1.5,9.6-7,10.9-15.3c0.6-3.7,0.4-7.2-3.9-8.8
		c0.6-1.9,0.6-4.1,3.6-2.9c2.4,0.9,6.8-1.4,6.9-4c0.3-4.6-0.2-9.1-3.6-12.7c-2.6-2.8-6.6-2.3-8.5,1.1c-0.4,0.8-1.1,1.6-2.1,3
		c-0.4-2.2-0.7-3.5-0.9-4.9c-0.5-4.2-4.6-8.7-7.8-8c-4.3,0.9-8.5,2.4-10.7,6.7c-1.2,2.4-2.1,4.9-3.1,7.4c-0.8-0.3-1.9-0.3-2.6-0.8
		c-2.3-1.7-4.1-0.5-6,0.7c-0.5,0.4-1.1,0.7-1.6,1.1c-3.6,2.9-5,10.6-2.4,14.3C210.4,33.9,212.4,35.4,214.3,37.2z"/>
	<path d="M266.6,78.6c0.1-0.6,0.2-1.2,0.3-1.9c2.3,0,2.2,1.5,2,2.9c-0.5,5.7-1.4,11.4-1.6,17.2c-0.3,7.1,0,14.3,0,21.5
		c0,1.1-0.3,2.1-0.5,3.2c-0.4,0-0.8-0.1-1.2-0.1c-0.2-4.7-0.4-9.5-0.7-14.2c-1.7,5.2-1.3,10.4-0.9,15.7c0.1,1.2-0.2,2.3-0.3,3.7
		c-3.1-1.4-3.7-3.3-3.5-6c0.8-14.1,1.4-28.2,2.1-42.3c0.1-2,0.3-4.1,0.6-6.1c0.1-0.5,0.8-0.9,1.2-1.3c0.3,0.5,0.8,1,0.8,1.5
		c0,1.2-0.4,2.4-0.3,3.6c0.1,1.1,0.6,2.1,0.9,3.1C266,78.8,266.3,78.7,266.6,78.6z M263.3,103.2c0.3,0,0.6,0,1,0c0-4.6,0-9.2,0-13.7
		c-0.1,0-0.2,0-0.3,0C263.7,94,263.5,98.6,263.3,103.2z"/>
	<path d="M554.2,235.6c1.4-0.3,3.2-1.9,4.2,1.2c-2.6,0.4-5,0.7-7.3,1.1c-14.3,2-28.5,4.8-42.2,9.7c-0.6,0.2-1.5,0.5-1.8,0.3
		c-2.3-2.1-4.9-2.2-7.6-0.5c-0.1-0.4-0.2-0.7-0.3-1.1c1.6-0.8,3.1-1.9,4.8-2.3c12.6-3.4,25.2-6.7,37.8-10c0.2,0,0.4-0.1,0.5-0.1
		c4.4,0.1,8.8,0.3,13.2,0.4C555.1,234.5,554.6,235.1,554.2,235.6c-1.4-0.1-2.8-0.4-4.1-0.2c-6.3,1-12.6,2.1-18.9,3.3
		c-5,1-10,2.5-15,3.7c6-0.7,11.9-1.9,17.8-3C540.8,238.1,547.5,236.9,554.2,235.6z"/>
	<path d="M516.3,286.7c0.3,0.4,0.7,0.8,1,1.3c-0.1,0.1-0.2,0.3-0.3,0.4c-7.7-4.2-15.4-8.5-23.1-12.7c0.1-0.3,0.2-0.6,0.3-0.9
		c0.6-0.1,1.2-0.4,1.7-0.3c4.6,1.3,9.3,2.1,13.5,4.8c11.9,7.6,24.6,13.6,37.9,18.5c0.9,0.3,1.8,0.9,2.7,1.4
		c-0.1,0.2-0.2,0.4-0.3,0.6c-0.9-0.2-1.7-0.3-2.6-0.5c-0.9-0.2-1.8-0.4-2.9-0.7c-0.2,0.6-0.3,1.1-0.5,2.1c-6-2.7-12.3-4.7-17.4-8.2
		c-3.2-2.2-6.4-4.3-9.8-6c-3.9-2.3-7.9-4.5-11.8-6.8c-0.2,0.3-0.3,0.6-0.5,1C508.2,282.7,512.2,284.7,516.3,286.7z"/>
	<path d="M183.2,446.7c0-1.1,0-2.1,0-3.5c-1.2,0.7-2.1,1.3-3.6,2.1c0.3-0.9,0.4-1.4,0.6-1.7c6.6-7.5,9.3-17,13.7-25.6
		c2.1-4.1,5.1-7.8,7.7-11.6c0.2-0.3,0.9-0.3,1.4-0.4c0.1,0.5,0.4,1.1,0.3,1.5c-0.3,1-0.9,2-1.4,3c-5.8,11.8-11.5,23.6-17.3,35.4
		c-0.1,0.3-0.4,0.5-0.7,0.8C183.7,446.7,183.4,446.7,183.2,446.7z"/>
	<path d="M36.2,275.6c5.9-3.7,43.3,6.5,47.5,11.1c-8.2-1.7-16.1-3.1-23.8-4.9C52.2,280,44.6,277.8,36.2,275.6z"/>
	<path d="M227.2,126.9c-1.6-2.2-3.4-4.2-4.6-6.6c-4.7-9.3-9.1-18.6-13.7-27.9c-0.8-1.6-1.9-3.1-3-5c0.9-0.5,1.6-0.9,2.3-1.2
		c3,6.4,6,12.6,8.9,18.9c0.3-0.1,0.7-0.2,1-0.4c-1.2-4.1-2.4-8.1-3.7-12.2c-0.6-2-1.5-4-2.1-6c-0.5-1.9,0.3-2.8,2.1-2.6
		c0,1.6-0.3,3,0,4.3c1.8,6.8,3.4,13.7,5.8,20.3c1.8,5.1,4.7,9.8,7.1,14.7c0.5,1,0.8,2.1,1.1,3.1C228,126.5,227.6,126.7,227.2,126.9z
		"/>
	<path d="M492.8,236.3c-1.3-2.5-0.4-3.7,6-7.9c-1.1,0.3-2.2,0.6-3.3,1c-1.1,0.4-2.1,0.9-3.2,1.4c-0.2-0.3-0.3-0.5-0.5-0.8
		c1.3-0.7,2.6-1.7,4-2.1c10.5-3.2,21-6.3,31.4-9.4c2.8-0.8,5.5-1.8,8.2-2.5c1-0.3,2,0,3.1,0c0,0.4,0.1,0.8,0.1,1.2
		c-1,0.3-2,0.5-2.9,0.8c-10.1,3.2-20.2,6.3-30.1,9.8C500.6,229.3,496.2,232.1,492.8,236.3z"/>
	<path d="M271.8,452.4c-2.2-7.7-4.3-15.3-6.5-23c-0.4,0.1-0.7,0.2-1.1,0.3c1.1,4.5,2.1,9.1,3.2,13.6c-0.3,0.1-0.7,0.2-1,0.2
		c-1.7-6.9-3.3-13.9-4.9-20.5c0.5-0.6,0.6-0.8,0.8-0.8c4.2-0.7,4.2-0.6,5.3,3.7c1.7,7.4,3.5,14.8,5.1,22.2c0.3,1.3,0.2,2.7,0.3,4
		C272.5,452.3,272.2,452.4,271.8,452.4z"/>
	<path d="M199.6,462.9c0.3-8.5,5.4-15,8.7-22.2c3.2-7.2,6.6-14.3,10.1-21.4c0.4-0.9,1.6-1.4,2.4-2.1c0.7-0.7,1.3-1.4,2-2.1
		c0.8-0.7,1.7-1.4,3-1.6C215.4,429.1,206.8,445.6,199.6,462.9z"/>
	<path d="M238.8,125.5c-0.8-1.6-2.1-3.1-2.4-4.7c-1-5-1.7-10.1-2.4-15.1c-0.6-4.6-0.9-9.2-1.4-13.9c-0.4-3.3-0.2-3.6,3.4-4.2
		c-2.2,4.6-1.2,9.4-0.6,14c1.1,7.6,3,15.1,4.5,22.6c0,0.2-0.1,0.5-0.1,0.8C239.4,125.1,239.1,125.3,238.8,125.5z"/>
	<path d="M49.7,209.6c16.3,5.2,30.5,14.3,45.1,22.8c-0.1,0.3-0.3,0.6-0.4,0.9c-1.5-0.7-3-1.2-4.3-2.1c-12-7.4-24.3-14.4-37.6-19.2
		c-1.1-0.4-2.1-1.2-3.2-1.8C49.4,210,49.5,209.8,49.7,209.6z"/>
	<path d="M236.5,125.8c-4.3-4.5-5.7-9.8-6.4-15.4c-0.8-7-1.6-14-2.3-21c0-0.3,0-0.7,0.1-1c0.3,0,0.6-0.1,0.9-0.1
		c0.6,3.6,1.3,7.1,1.8,10.7c0.8,5.6,1.2,11.2,2.3,16.8C233.5,119.1,235.1,122.3,236.5,125.8z"/>
	<path class="st0" d="M394,172.2c-0.3,0.3-0.6,0.7-1,0.9c-0.1,0.1-0.3,0-1.3,0c6.3-8.2,12.3-16,18.2-23.7c0.3,0.2,0.6,0.5,1,0.7
		c-1.6,2.4-3.3,4.7-4.9,7.1c-1.4,2.1-2.8,4.3-4.2,6.4C399.2,166.5,396.6,169.3,394,172.2z"/>
	<path d="M134.6,158c-3.3-4.1-6.7-8.2-10-12.3c0.2-0.2,0.4-0.3,0.6-0.5C129.7,148.3,132.6,152.7,134.6,158z"/>
	<path d="M267.3,444.4c0.7,3.7,1.3,7.3,2,11c-0.4,0.1-0.9,0.2-1.3,0.2c-0.6-3.7-1.2-7.3-1.8-11C266.4,444.6,266.8,444.5,267.3,444.4
		z"/>
	<path class="st0" d="M22.6,391.7c2.6-3.1,5.7,0.4,8.5-1.1c-0.3-0.6-0.5-1.2-0.7-1.7c1-0.2,2-0.4,3.9-0.9c-3.5-2.1-4.3-4.3-2.7-7.4
		c2.1-4,4.8-7.3,9.4-8.5c0.5-0.1,1.3,0.2,1.8,0.5c4.8,3,9.9,5.8,10.4,12.4c0,0.5,0.6,1.3,1.1,1.5c1.2,0.5,2.6,1.2,3.8,1
		c1.1-0.1,2.2-1.1,3.2-1.8c5.2-3.8,12.6-7.4,19.6-3.9c5.4,2.7,7.5,7,5.7,12.7c-0.7,2.1-1.2,4.2-1.8,6.4c0.3,0.1,0.6,0.2,0.8,0.3
		c1.2-2.7,2.4-5.4,3.6-8.1c0.2,0,0.4,0,0.6,0c0,3.4,0.5,6.9-0.1,10.1c-0.6,3.3-2.4,6.4-3.6,9.6c1.1,1.7,2.5,1.8,4.5,1.6
		c9.5-0.9,16,0.8,19.8,8.7c3.8,7.9,0,17.4-8.3,20.1c-1.9,0.6-4.1,0.3-6.2,0.2c-1.3-0.1-2.6-0.5-4.6-0.9c0.7,1.1,0.9,1.5,1.2,1.9
		c3.7,4.5,4.1,9.3,1.2,14.4c-2.4,4.3-5.6,7.6-10.4,9.2c-3.5,1.2-6.9,2.8-10.5,3.7c-7.4,1.8-13.9-0.4-18.9-6.1
		c-4.3-4.8-7.5-10.3-6.1-17.2c0.3-1.3,1.1-2.5,1.5-3.8c0.2-0.7-0.1-1.6-0.2-2.3c-0.8,0.3-1.8,0.4-2.3,0.9c-0.8,1-1.2,2.2-1.9,3.6
		c-0.6-1.4-1-2.5-1.7-4.3c-1.2,1.6-2.1,2.5-2.7,3.7c-4.2,8.2-11.7,9.9-19.7,9.7c-5-0.1-8.7-3.6-12-7c-7.2-7.2-6.8-17.4,0.9-24.2
		c0.4-0.4,0.8-0.7,1.3-1.1c4.8-4.3,5.1-4.4,10.9-4.9c-1.2-3.9,3.4-2.2,4.2-4.9c-2.5,0.3-4.8,0.7-7,0.9c-2.5,0.3-3.5-1.1-2.9-2.8
		c-2.2-2.8-4.4-5.2-6.1-7.8c-0.7-1.1-1-2.8-0.9-4.2c0.4-4.6,4.4-9.7,8.2-10.7C19.8,389.1,21.7,389,22.6,391.7z"/>
	<path class="st0" d="M112.8,446.2c-2.3,0.4-4.6,0.8-7.1,1.2c3-3,5.7-5.7,8.7-8.7c-0.6,2.6-1.1,5.1-1.7,7.6
		C112.7,446.3,112.8,446.2,112.8,446.2z"/>
	<path class="st0" d="M123.5,203.4c4.7,5.1,8.9,9.8,13.2,14.4c1.4,1.5,2.6,3.1,4.2,4.4c2.2,1.9,3.9,0.2,5.4-0.9
		c-5.3-5.8-10.7-11.4-15.8-17.2c-3.7-4.2-3.2-5.1,2.3-6.3c4-0.9,7.1-0.4,10.1,3c3.2,3.8,7.3,6.9,11,10.2c0.6,0.5,1.7,0.5,2.5,0.7
		c0.1-0.4,0.3-0.7,0.4-1.1c-0.8-0.6-1.6-1.3-2.7-2.2c1,0.1,1.5,0.1,2.3,0.1c-5.7-5-11.2-9.7-17-14.8c3.6-3,7.3-4,11-4.8
		c0.6-0.1,1.6,0.9,2.1,1.5c2.8,3.3,5.6,6.7,8.4,10.1c1.7,2.1,3.9,3.3,7.3,3.2c-2.3-2.8-4.3-5.1-6.2-7.5c-1.5-2-3.1-4-4.4-6.1
		c-1.1-1.8-1-3.2,1.7-3.3c1.3,0,2.6-0.2,4.1-0.4c-0.1,0.8-0.2,1.4-0.4,2.5c1.7-0.8,3-1.5,4.6-2.2c-0.7-0.7-1.2-1.2-1.8-1.7
		c0.3-0.2,0.5-0.4,0.8-0.4c5.3-0.4,10.4,0,15.1,2.8c4.4,2.6,8.7,5.3,13.3,7.5c2,1,3.9,1.7,5.3,3.6c0.4,0.5,2.5-0.3,3.9-0.5
		c-0.4-1.8-0.9-3.5-1.4-5.8c1.8,1.3,3,2.1,4.3,3c-3.7-6.1-1.3-11.6,1.5-16.7c6-10.6,14.5-18.5,26.1-22.7c11.4-4.2,23.2-5.6,35.1-2.8
		c8.2,1.9,15.7,5.8,19.2,14.2c1.3,3.1,1.5,6.6,2,10c0.3,1.9,0,3.9,0,5.9c0.3,0.1,0.7,0.2,1,0.2c1.2-1.4,2.4-2.8,3.9-4.5
		c0.4,1.3,0.6,2.3,0.9,3.4c8.6-7.4,18.6-11.1,29.5-12.9c-8.4,3.3-15.3,8.7-22.2,14.2c0.2,0.2,0.3,0.5,0.5,0.7c1.6-1,3.1-2,4.7-3.1
		c6.1-4.3,12-8.8,19.4-10.7c1.6-0.4,3.2-1,4.9-1.1c8.7-0.3,17.5-0.6,26.2-0.7c5.7-0.1,10.5,2.5,16.2,5c-4.1,6.5-8.1,12.8-12.2,19.3
		c2.2,0.5,3.1-0.9,4-2.2c2.9-4.5,5.8-9.1,8.8-13.6c0.6-0.9,1.4-1.6,2.5-2.8c0.2,1.2,0.3,1.7,0.3,2.3c1.8-1.5,3.4-1,6.3,1.9
		c-5.5,8-11.3,15.9-15.5,24.8c0.3,0.2,0.6,0.5,1,0.7c1.6-1.8,3.4-3.6,4.7-5.6c2.5-3.8,4.6-7.8,7.1-11.6c0.5-0.8,1.9-1,3.1-1.7
		c0,0.1-0.3-0.5-0.7-1.2c2.4-3.7,2.4-3.6,5.7-0.9c4.9,4.2,7.8,15.5,4.8,21.8c-1.1,2.4-2.4,4.8-3.2,7.4c-0.5,1.6-0.5,3.5-0.7,5.3
		c0.3,0.1,0.6,0.1,0.9,0.2c0.9-2.2,1.8-4.5,2.7-6.7c0.1,0,0.3,0.1,0.4,0.1c-0.4,1.6-0.8,3.3-1.2,5.2c1-0.1,2.2-0.2,3.4-0.3
		c0.8,2.1,2.3,2.6,3.7,1.1c3.2-3.4,7.6-3.8,11.7-4.2c4.1-0.4,8.2-0.1,12.3-0.1c0.8,0,1.7,0.2,2.4,0.5c9.5,4.1,18.9,8.5,27.4,14.5
		c6.9,4.9,12.4,10.9,15.7,18.8c0.5,1.2,1.1,2.3,1.6,3.4c0.3-0.1,0.5-0.2,0.8-0.3c-0.8-2.4-1.5-4.7-2.4-7.2
		c5.7,5.5,8.8,24.3,2.3,30.4c-0.2-2.9-0.9-5.8-0.5-8.5c0.3-2.5-0.8-3.1-3.1-3.5c0.7,2.5,1.4,4.8,2,7.1c1.1,4.8-0.2,8.9-3.8,12.1
		c-2.6,2.3-5.3,4.3-8.5,6c1-1.2,2-2.5,3-3.7c-0.1-0.1-0.2-0.3-0.3-0.4c-2.7,2.5-5.1,5.4-8.1,7.3c-3.9,2.5-8.4,4.2-12.6,6.1
		c-0.5,0.2-1.5-0.3-2.2-0.7c-0.7-0.4-1.4-1-2.6-1.9c0.2,1.5,0.3,2.3,0.4,3.2c-3.3,2-5.1-2.2-8.2-2c-0.1,3.3,3.3,3.3,4.5,5.7
		c-1,0.4-1.9,0.7-3.2,1.2c0.7,0.2,1.3,0.4,1.8,0.6c7.1,1.6,9.6,4.7,10.2,12c0.7,8.2-1.5,15.3-7,21.5c-2.2,2.5-3.5,5.9-5.5,8.6
		c-4,5.5-9.2,9.7-15,13.1c-4.2,2.5-9,3.1-13.5,1.9c-9.3-2.5-19-3.7-27.8-8.1c-2.1-1.1-4.4-1.8-6.6-2.6c-6.8-2.3-9.6-8.1-12.2-14
		c-1.3-2.9-2.2-5.9-0.6-9.1c0.3-0.6-0.2-1.5-0.4-2.3c-0.6,0.2-1.1,0.3-1.7,0.5c-0.7-1.1-1.4-2.3-2.2-3.5c-0.4,0-0.7,0.1-1.1,0.1
		c-0.3,1.9-0.7,3.8-0.8,5.7c-0.3,4.6-0.2,9.3-3.4,13.2c-0.5,0.6-0.9,1.1-1.3,1.6c-2.6-0.5-3.9-3.9-7.4-2.5c1.2,1.6,2.2,3.2,3.4,4.6
		c1.7,2,1.4,3.6-0.9,5.1c-1.8-2-3.4-4-5.2-5.9c-0.1-0.1-0.9,0.3-1.9,0.7c1.6,2.2,3,4.3,4.5,6.2c0.9,1.2,1,2.2-0.1,3.4
		c-2.7,2.8-5.3,5.7-8,8.7c-3.4-2.8-3.7-7.7-7.3-9.8c-0.3,0.2-0.5,0.3-0.8,0.5c1.1,1.9,2.1,3.9,3.2,5.8c-0.1,0.1-0.2,0.2-0.3,0.3
		c-0.5-0.6-1-1.4-1.6-1.8c-0.8-0.5-1.7-0.8-2.6-1.2c0.3,0.8,0.4,1.8,1,2.5c1.4,1.6,2.9,3.1,4.4,4.7c1.2,1.3,1.3,2.6-0.2,3.7
		c-9.1,6.7-19,12.1-30.4,12.8c-7.4,0.5-14.9-1.3-22.4-2.3c-4.4-0.6-8.7-1.7-13.1-2.5c-8-1.3-14.8-5.1-21.2-10c-2.6-2-3.3-4.8-4-7.7
		c-0.2-0.8-1.1-1.5-1.6-2.2c-0.3-0.5-0.6-1-0.6-1.6c-0.2-1.8-0.3-3.7-0.5-5.5c-0.1-0.9-0.6-1.8-0.9-2.6c-0.6,0-0.8,0-0.9,0.1
		c-6.5,8.2-15.4,12.7-25,16c-5.3,1.8-11,2.7-16.5,3.8c-6.5,1.4-13,2.7-19.7,2c-4.2-0.5-8.4-1.1-12.8-2.1c3.3-4.3,6.7-8.4,11.8-11
		c-0.2-0.2-0.4-0.9-0.9-1.2c-1.3-0.8-6.5,0.4-7.4,1.7c-1.8,2.6-3.7,5.1-5.4,7.8c-1.1,1.7-2.4,1.8-4,0.7c-2.3-1.5-4.7-2.8-7.5-4.5
		c1.6-1.2,2.9-2.1,4.2-3.1c6.1-4.4,12.3-8.7,18.4-13.1c0.6-0.4,0.9-1.2,1.3-1.8c-0.8,0-1.6-0.2-2.4-0.1c-3.6,0.3-7.1,0.8-10.2,2.8
		c-4.2,2.7-8.5,5.4-12.4,8.5c-3,2.4-5.5,2.2-8.6,0.5c-3.4-1.9-5.5-5-6.9-8.4c-0.2-0.5,0.6-2,1.3-2.4c4.8-3.1,9.6-6.1,14.5-8.9
		c2.1-1.2,3.6-2.6,3.3-5.8c-1.4,0.5-2.8,0.7-4,1.4c-4.9,2.7-9.7,5.6-14.5,8.3c-3.3,1.8-3.7,1.6-4.7-2c-3.4-11.5,0.4-21.2,8.3-29.2
		c4.7-4.7,10.3-8.5,15.6-12.6c5.6-4.3,11.9-4.8,18.5-3c1.5,0.4,3.1,0.4,4.6,0.6c0.2-0.3,0.3-0.6,0.5-0.8c-2.4-1.7-4.6-3.8-7.3-4.9
		c-4.9-2.1-10.1-3.6-15.1-5.5c-9.2-3.5-17.6-8.3-24.6-15.4c-0.4-0.4-0.8-1-1.5-1.9c1,0.3,1.5,0.5,2.7,1c-1.6-2.6-3.1-4.5-4.1-6.6
		c-0.9-1.9-1.9-3.9-2.1-5.9c-1.6-13.8,0.4-27.2,5.6-40.1C121.2,206.7,122.3,205.4,123.5,203.4z M151.6,213.4c0-0.3,0.1-0.6,0.1-0.8
		c-0.8-1-1.6-2-2.4-2.9c-0.2,0.1-0.5,0.2-0.7,0.3c0.4,1.1,0.7,2.3,1.3,3.4C150,213.6,151,213.4,151.6,213.4z"/>
	<path class="st0" d="M411.3,89.6c0-0.2,0.1-1.1,0.2-2c0.6,0.4,1.2,1,1.8,1.2c0.5,0.2,1.3,0.3,1.5,0c0.3-0.4,0.6-1.3,0.3-1.7
		c-1.2-2.2-0.3-4.2,1.2-5.6c3.2-3.1,6.7-6,10.1-8.9c0.2,0.2,0.4,0.4,0.6,0.6c-0.7,1.9-1.3,3.8-2,5.7c0.4,0.2,0.8,0.3,1.2,0.5
		c0.5-0.9,0.8-1.9,1.4-2.7c0.7-0.9,1.6-2.3,2.4-2.3c0.8,0,1.7,1.4,2.5,2.2c0.2,0.2,0.3,0.6,1,0.7c-0.5-1.1-0.8-2.4-1.6-3.1
		c-1.5-1.4-1-2.6,0.2-3.5c1.7-1.2,3.6-2.2,5.6-3c1.3-0.5,2.7-0.5,4.1-0.8c3.7-0.9,7-0.7,9.3,2.8c0.3,0.5,1,0.8,1.8,1.4
		c-0.2-1-0.2-1.6-0.4-2.6c3.5,1.6,5,4.5,6.3,7.6c0.2,0.4-0.4,1.1-0.7,1.6c-0.5,0.7-1.2,1.2-1.5,2.3c1-0.2,2.1-0.4,3.8-0.7
		c-0.7,2-1.3,3.6-1.9,5.6c4.2-0.4,3.2-4.2,4.4-6.5c5.9,1.5,12.1,2.2,16.8,6.7c4.7,4.5,4.4,12.4-0.5,16.6c-0.7,0.6-1.8,0.9-2.8,1.2
		c-1.5,0.4-3,0.6-4.5,0.8c-0.1,0.3-0.1,0.6-0.2,0.9c1.7,0.5,3.4,1.3,5.2,1.5c6.3,0.7,9.6,3.9,9.5,10.2c-0.1,5.2-0.4,10.6-1.7,15.6
		c-1.6,6.5-4.9,7.8-11.4,5.8c-1.1-0.3-2.2-0.7-3.3-1c-0.2,0.2-0.3,0.4-0.5,0.6c0.7,0.9,1.3,1.8,2,2.6c1.9,2,2.4,4.2,1.7,6.9
		c-1.4,5.1-4.4,8.8-9.4,10.5c-6.8,2.4-13.6,3.4-20.6,0.3c-3.6-1.6-4.9-3.5-4.2-7.3c0.2-0.9,0.4-1.8,0.5-2.7c0.2-1.9,1.1-3,3.2-3.1
		c0.9,0,1.9-0.5,2.8-1.3c-1.2-0.3-2.4-0.6-3.8-0.9c0.6-1.3,1.1-2.5,1.8-4.3c-1,0-2.1-0.3-2.5,0c-6.8,5.4-13.9,4.9-21.2,1.2
		c-2.3-1.2-4.6-2.8-6.5-4.7c-2.6-2.7-2.6-5.8-0.6-8.9c1.7-2.6,3.3-5.1,5-7.7c0.3-0.5,0.5-1,0.7-1.5c-1.2-2.1-2.5-1.1-3.5,0
		c-1.8,2-3.4,4.2-5.1,6.3c-3.1,3.7-6.9,6.2-11.6,7.1c-2.9,0.6-5.4-0.2-7.4-2.8c5.9-0.1,12.1,1.6,16.5-4.2c-0.8,0.2-1.7,0.2-2.3,0.6
		c-4.3,2.8-8.9,2.6-13.7,2c-1.6-0.2-2.1-1-1.9-2.7c0.6-4,1.7-5.3,5.6-5.5c2.6-0.2,4-2,3.5-4.6c-0.6-3-2.6-5.1-5.9-5.4
		c-3.1-0.3-3.9-2-4-4.6c-0.1-3.8,0.9-7.4,3.3-10.4c1.6-2,3.5-3.3,6.2-3.2C402.4,89.4,406.6,89.5,411.3,89.6z"/>
	<path class="st0" d="M53.9,96.2c0.5-2.7,1.1-4.9,1.3-7c0.9-11.8,11.1-15.9,19.3-15.1c3.1,0.3,6.2,1.1,9.1,2.4
		c4.2,1.8,5.2,4.8,3.9,9.2c-0.3,0.9-0.5,1.9-0.7,2.9c0.2,0.2,0.5,0.3,0.7,0.5c0.8-0.9,1.7-1.6,2.4-2.6c0.7-0.9,1.1-2,1.7-3
		c0.3,0.1,0.6,0.2,1,0.3c-0.3,1.6-0.5,3.1-0.8,5.1c1.3-0.5,2.5-1,3.6-1.6c4.5-2.1,9.1-3.9,14.2-2.1c6,2,8.4,11.2,4.2,16
		c-1.4,1.5-3.1,2.6-4.6,4c-0.7,0.7-1.1,1.6-1.7,2.4c0.9,0.3,1.8,0.7,2.7,0.9c1,0.2,2.1,0.2,3.1,0.4c0.1,0.3,0.1,0.5,0.2,0.8
		c-1.4,0.7-2.8,1.5-4.2,2.2c0,0.2,0,0.5,0.1,0.7c0.8,0.1,1.6,0.2,2.4,0.4c2.2,0.4,3.6,1.8,2.6,3.9c-2.8,5.7-5.8,11.3-8.9,16.9
		c-0.3,0.6-1.6,0.7-2.3,1.2c-1.2,0.7-2.5,1.4-3.4,2.4c-2.1,2.2-4.6,1.4-7.1,1.5c-0.3-2.6-0.4-5.1-0.9-7.5c-0.7-3.2-2.9-4.7-5.1-3.6
		c-1.1,0.6-2.3,2-2.4,3.2c-0.3,3.6,0.4,6.9,3.6,9.3c0.7,0.5,1.3,2.4,0.9,3.2c-3.5,8.2-8.1,15.7-14.9,21.6
		c-4.7,4.1-11.4,4.3-15.8,0.4c-2.4-2.1-3.9-4.7-2.6-8.1c0.3-0.8,0.5-1.9,0.2-2.7c-0.3-0.9-1.1-1.6-1.6-2.4c-0.8,0.8-2.2,1.6-2.3,2.5
		c-0.6,4.6-0.8,5.1-4.7,7c0.2-3,0.4-5.9,0.5-8.8c-0.3,0-0.5,0-0.8-0.1c-0.5,2.3-0.7,4.7-1.4,6.9c-1,3.2-3.5,4.1-5.6,1.6
		c-4.2-4.8-7.9-10-11.7-15.1c-0.5-0.7-0.5-2.2-0.2-3.2c1.6-6,5-10.8,10.3-14c1.4-0.9,3.3-0.8,4.9-1.4c0.8-0.3,1.5-1.1,2.3-1.6
		c-0.5-0.6-1.1-1.1-1.5-1.7c-1.7-2.6-3.7-5.1-5-7.9c-2.1-5-2.4-10.3-1-15.6c1.1-4.3,4.3-6.6,8.1-8.1c0.9-0.4,2.5,0.3,3.5,0.8
		C51.1,93.9,52.2,94.9,53.9,96.2z"/>
	<path class="st0" d="M387,433.7c-1.9,0.2-3.2,0.3-5,0.4c0.8-0.8,1.3-1.2,2.1-2c-1-0.2-1.5-0.3-2.1-0.3c-2.9,0-4.2-1.1-4.1-4
		c0.3-11.4,8.5-20,18.2-22.2c6.1-1.4,11.9,2.8,13,9.1c0.3,1.4,0.7,2.9,2.5,1c0.3-0.3,1.3,0.2,2,0.3c0.1-0.2,0.4-0.3,0.5-0.6
		c0.8-1.5-0.2-3.7,2.2-4.7c3.9-1.5,7.6-4.2,11.9-2.9c4.8,1.4,8.6,4.5,10.8,9.8c-1.5,0-2.5,0-3.6,0c-0.2,0.2-0.4,0.5-0.6,0.7
		c1.4,1.5,2.8,3,4.4,4.7c-0.9,0.5-1.8,1.1-2.8,1.6c1.2,2.2,2.8,3.2,5.1,2.4c8.7-3.1,20.6,7.1,22.8,13.9c4.4,13.3-4.2,22.9-15.1,25.9
		c-1.8,0.5-3.6,0.8-5.5,1c-4.5,0.6-8.8,0-11.7-4c-0.9-1.3-1.8-2.6-2.7-3.9c-0.5,0.2-1,0.4-1.5,0.6c-0.3,1.1-1.2,2.3-0.9,3.2
		c0.6,1.8-0.2,2.9-1.4,3.8c-5.6,4.5-11.6,7.4-19.2,6.2c-7.9-1.2-15.1-3.9-21.1-9.2c-8.8-7.7-8.8-20.7-0.4-28.8
		C385.7,435.4,386.2,434.7,387,433.7z"/>
	<path class="st0" d="M242,369.4c5.4,1.7,10.9,3.8,16.6,5.2c5.7,1.4,11.5,2,17.4,3C269.4,381.2,246.3,377.5,242,369.4z"/>
	<path class="st0" d="M28.7,159c-2.6-2.2-3.8-5.6-4.1-9.2c-0.6-6.6,0.8-13,4.2-18.7c2.2-3.7,5.6-5.7,10.3-5.8
		C25.3,133.6,21.6,144.7,28.7,159z"/>
	<path class="st0" d="M449.6,161.4c17.2-1.9,17.2-1.9,24.6-10.2C471.9,159.8,456.3,166.3,449.6,161.4z"/>
	<path class="st0" d="M27.4,148.6c4.1,5.1,7.9,9.7,11.7,14.4C33.8,163,27.1,155.1,27.4,148.6z"/>
	<path class="st0" d="M390.4,470.6c6.9,1.8,13.7,3.6,20.7,5.4c-2.3,0.9-4.4,2.2-7.3,0.7c-2.9-1.5-6-2.3-9-3.6
		c-1.6-0.7-3-1.6-4.6-2.4C390.3,470.7,390.3,470.7,390.4,470.6z"/>
	<path class="st0" d="M56.2,80c3.9-7.7,13-11.4,19.9-7.9c-3.7,0.6-7.6,0.6-11,1.9C61.7,75.3,58.9,78,56.2,80z"/>
	<path class="st0" d="M227.6,350.5c0.2,1.7,0.4,3.3,0.6,5.1c-0.5,0.1-0.9,0.2-1.6,0.3c2.4,4.6,4.8,9,7.1,13.4
		C227.2,365.2,224.3,356.4,227.6,350.5z"/>
	<path class="st0" d="M110.1,185.9c4.3,4.7,8.7,9.3,13,14c-0.3,0.3-0.6,0.5-0.9,0.8c-4.3-4.7-8.6-9.4-12.9-14
		C109.6,186.4,109.8,186.1,110.1,185.9z"/>
	<path class="st0" d="M386,121c-1.8-3.2-0.3-5.8,1.1-8.6C389.7,114.6,389.4,116.9,386,121z"/>
	<path class="st0" d="M85.7,132.8c0.4-1,0.9-2.3,1.4-3.5c1.1,1.1,2.3,2.2,3.1,3.4c0.4,0.7,0.3,1.8,0.4,2.9
		C89,134.7,87.7,133.9,85.7,132.8z"/>
	<path class="st0" d="M298,177.5c3.1-3.6,8.1-3.6,11.7-6.2c0.1,0.2,0.3,0.5,0.4,0.7c-3.9,2.1-7.7,4.2-11.6,6.3
		C298.3,178.1,298.1,177.8,298,177.5z"/>
	<path class="st0" d="M170.5,368.3c-4.4-0.6-8.9-1.2-13.3-1.8c0-0.3,0.1-0.6,0.1-0.9c4.5,0.4,8.9,0.9,13.4,1.3
		C170.7,367.4,170.6,367.9,170.5,368.3z"/>
	<path class="st0" d="M153.7,344.3c-3.4,2.3-6.9,4.6-10.3,6.8c-0.2-0.3-0.4-0.7-0.7-1c3.5-2.2,6.9-4.4,10.4-6.7
		C153.3,343.7,153.5,344,153.7,344.3z"/>
	<path class="st0" d="M94.5,82.3c2.9,0,5.2,0,7.4,0c0.1,0.2,0.1,0.4,0.2,0.6c-2,0.8-3.9,1.5-6.3,2.5C95.4,84.4,95,83.6,94.5,82.3z"
		/>
	<path class="st0" d="M412.6,408.9c2.4-2.2,5.4-2.9,8.8-2.5c-2.8,1.1-5.6,2.3-8.4,3.4C412.9,409.5,412.8,409.2,412.6,408.9z"/>
	<path class="st0" d="M234.7,364.5c2.3,2.4,4.5,4.9,6.8,7.3c-0.2,0.2-0.4,0.4-0.5,0.6c-2.4-2.3-4.8-4.6-7.2-6.9
		C234.1,365.1,234.4,364.8,234.7,364.5z"/>
	<path class="st0" d="M434.4,342.4c1.2-2.9,2.5-5.7,3.7-8.6c0.3,0.1,0.6,0.3,0.9,0.4c-1.3,2.8-2.6,5.7-3.9,8.5
		C434.9,342.6,434.7,342.5,434.4,342.4z"/>
	<path class="st0" d="M428.8,147.7c4.3-0.2,4.3-0.2,4.2,3C431.5,149.6,430.2,148.6,428.8,147.7z"/>
	<path class="st0" d="M347.2,463.8c0.6,0.4,1.1,0.6,1.6,0.9c3.5,1.8,4.4,4.6,2.4,8c-3.1,5.2-7,9.4-13.4,10.3
		c-1.4,0.2-2.7,0.5-3.6-1.2c-0.3-0.6-1.5-0.6-2.3-0.9c-0.1,0.7-0.4,1.5-0.2,2.1c0.8,2.8-1.3,4.4-2.9,5.7c-6.5,5.4-13.4,5.3-20.4,0.6
		c-4.2-2.8-7.4-5.8-7-11.4c0.2-3,0.1-3,3.6-6.1c-3.7-0.4-4.8-3.1-5.1-5.9c-0.2-2.7,0-5.6,0.9-8.1c1.2-3.4,3.2-6.5,5-9.6
		c1.9-3.4,7.5-3.9,9.9-0.3c1.4,2.2,2.9,4.3,4.5,6.3c0.6,0.8,1.5,2,2.3,2.1c1,0.1,2.1-0.9,3.2-1.3c-0.3-0.4-0.5-0.7-0.8-1.1
		c0,0.6,0,1.2,0,1.7c0,1.1-0.5,2.8,1.4,2.6c0.6-0.1,1.6-1.5,1.6-2.3c0-2.5,1.5-4,3.3-5.1c0.7-0.5,2-0.5,2.7-0.2
		c0.5,0.3,0.7,1.5,0.9,2.3c0.3,1.1,0.6,2.2,1,4.1c3.4-3.5,6.4-3,9.6-1.2C350,458.4,350.4,459.4,347.2,463.8z"/>
	<path class="st0" d="M352.1,456.9c-1.6-2.3-3-4.4-4.3-6.4C350.7,451.4,352.2,453.6,352.1,456.9z"/>
	<path class="st0" d="M342.1,484.6c-2.3,0.4-4.5,0.7-6.8,1.1c-0.1-0.3-0.1-0.7-0.2-1c2.3-0.4,4.5-0.8,6.8-1.1
		C342,483.9,342,484.3,342.1,484.6z"/>
	<path class="st0" d="M214.3,37.2c-1.8-1.8-3.9-3.3-5.2-5.3c-2.6-3.7-1.2-11.4,2.4-14.3c0.5-0.4,1-0.8,1.6-1.1
		c1.9-1.3,3.7-2.5,6-0.7c0.7,0.5,1.7,0.6,2.6,0.8c1.1-2.5,1.9-5,3.1-7.4c2.2-4.3,6.4-5.8,10.7-6.7c3.2-0.7,7.3,3.8,7.8,8
		c0.2,1.4,0.5,2.8,0.9,4.9c1-1.4,1.6-2.1,2.1-3c1.8-3.4,5.9-3.9,8.5-1.1c3.4,3.6,3.9,8.1,3.6,12.7c-0.2,2.6-4.5,4.9-6.9,4
		c-2.9-1.1-3,1-3.6,2.9c4.2,1.7,4.5,5.2,3.9,8.8c-1.3,8.3-4.7,13.8-10.9,15.3c-3.8,0.9-6.5,0.1-8.9-3.1c-0.5-0.7-1-1.7-1.8-2.1
		c-0.6-0.3-2-0.1-2.3,0.3c-2.6,4.1-5.1,5.1-10.1,4c-4.6-1-7.4-3.7-8-7.8C209.1,42.4,209.4,41.8,214.3,37.2z"/>
	<path class="st0" d="M263.3,103.2c0.2-4.6,0.5-9.2,0.7-13.8c0.1,0,0.2,0,0.3,0c0,4.6,0,9.2,0,13.7
		C263.9,103.2,263.6,103.2,263.3,103.2z"/>
	<path class="st0" d="M554.2,235.6c-6.7,1.3-13.5,2.5-20.2,3.8c-5.9,1.1-11.8,2.3-17.8,3c5-1.3,10-2.7,15-3.7
		c6.3-1.3,12.6-2.3,18.9-3.3C551.4,235.2,552.8,235.5,554.2,235.6C554.2,235.6,554.2,235.6,554.2,235.6z"/>
	<path class="st0" d="M516.3,286.7c-4-2-8.1-4-12.1-6c0.2-0.3,0.3-0.6,0.5-1c3.9,2.3,7.9,4.5,11.8,6.8
		C516.4,286.5,516.3,286.7,516.3,286.7z"/>
	<path d="M151.6,213.4c-0.6,0-1.6,0.2-1.7,0c-0.6-1.1-0.9-2.3-1.3-3.4c0.2-0.1,0.5-0.2,0.7-0.3c0.8,1,1.6,2,2.4,2.9
		C151.7,212.9,151.6,213.1,151.6,213.4z"/>
</g>
</svg>
